<?xml version="1.0" standalone="no"?>
<!DOCTYPE svg PUBLIC "-//W3C//DTD SVG 20010904//EN"
 "http://www.w3.org/TR/2001/REC-SVG-20010904/DTD/svg10.dtd">
<svg version="1.0" xmlns="http://www.w3.org/2000/svg"
 width="512.000000pt" height="512.000000pt" viewBox="0 0 512.000000 512.000000"
 preserveAspectRatio="xMidYMid meet">

<g transform="translate(0.000000,512.000000) scale(0.100000,-0.100000)"
fill="#000000" stroke="none">
<path d="M2332 5099 c-575 -51 -1121 -302 -1546 -709 -324 -311 -580 -749
-691 -1184 -71 -282 -96 -542 -77 -809 26 -361 100 -641 257 -962 243 -501
656 -913 1159 -1160 319 -156 600 -231 963 -257 267 -19 527 6 809 77 511 131
993 441 1333 859 161 198 327 488 416 730 117 316 171 703 147 1038 -13 191
-32 304 -77 484 -126 495 -423 966 -820 1301 -210 177 -514 354 -770 449 -332
122 -741 175 -1103 143z m1038 -1165 c236 -53 468 -268 549 -510 67 -201 34
-450 -84 -629 -46 -69 -496 -530 -600 -614 -39 -31 -95 -69 -125 -85 -48 -25
-61 -38 -92 -95 -48 -89 -143 -195 -409 -456 -276 -271 -337 -314 -520 -361
-83 -22 -242 -22 -334 0 -210 50 -417 219 -515 421 -113 231 -95 507 45 720
43 65 428 462 565 583 47 41 115 91 152 111 49 26 71 45 83 70 40 85 104 160
310 370 337 343 405 398 564 455 129 46 263 53 411 20z"/>
<path d="M3122 3649 c-119 -20 -146 -40 -453 -348 -313 -313 -329 -334 -351
-465 -21 -128 20 -256 117 -364 65 -71 77 -95 77 -143 -2 -101 -95 -169 -192
-140 -60 18 -170 144 -226 256 -24 50 -49 113 -56 140 -6 28 -15 53 -18 57 -3
5 -114 -101 -246 -235 -263 -264 -283 -292 -303 -418 -23 -140 19 -260 131
-375 115 -119 243 -167 387 -143 130 21 150 36 462 348 313 313 329 334 351
465 22 132 -19 252 -127 375 -67 77 -79 109 -63 170 14 48 66 98 112 107 66
12 108 -9 186 -94 76 -82 149 -212 172 -307 6 -27 15 -53 18 -57 3 -5 114 101
246 235 263 264 283 292 303 418 14 84 0 175 -39 254 -37 78 -156 195 -232
230 -46 21 -162 47 -193 44 -5 -1 -34 -5 -63 -10z"/>
</g>
<style>
        path { fill: #000; }
        @media (prefers-color-scheme: dark) {
            path { fill: #FFF; }
        }
    </style>
</svg>
