<?xml version="1.0" standalone="no"?>
<!DOCTYPE svg PUBLIC "-//W3C//DTD SVG 20010904//EN"
 "http://www.w3.org/TR/2001/REC-SVG-20010904/DTD/svg10.dtd">
<svg version="1.0" xmlns="http://www.w3.org/2000/svg"
 width="512.000000pt" height="512.000000pt" viewBox="0 0 512.000000 512.000000"
 preserveAspectRatio="xMidYMid meet">

<g transform="translate(0.000000,512.000000) scale(0.100000,-0.100000)"
fill="#000000" stroke="none">
<path d="M2325 4949 c-254 -24 -579 -117 -819 -234 -232 -113 -504 -310 -672
-487 -626 -660 -832 -1573 -548 -2427 239 -718 797 -1276 1514 -1515 1022
-340 2128 31 2738 917 560 814 560 1900 0 2714 -497 722 -1337 1114 -2213
1032z m373 -964 c233 -47 440 -229 516 -455 38 -111 46 -262 22 -373 -19 -85
-78 -210 -130 -277 l-34 -45 71 -33 c176 -81 380 -248 503 -411 79 -105 185
-315 218 -433 39 -138 58 -290 54 -442 -3 -146 -9 -164 -72 -210 -39 -29 -133
-29 -172 0 -65 48 -68 60 -76 252 -5 141 -12 197 -32 276 -93 362 -385 653
-746 746 -108 28 -309 38 -418 20 -414 -66 -744 -365 -849 -769 -20 -77 -26
-132 -31 -273 -8 -192 -11 -204 -76 -252 -39 -29 -133 -29 -172 0 -67 49 -69
58 -69 257 1 152 5 199 24 286 91 415 349 749 726 941 l92 47 -34 44 c-52 66
-110 192 -129 277 -24 108 -15 270 21 375 58 168 188 313 350 392 145 72 287
91 443 60z"/>
<path d="M2445 3660 c-263 -87 -342 -421 -147 -617 181 -180 485 -127 599 105
25 51 28 68 28 157 0 88 -3 107 -27 158 -79 168 -279 255 -453 197z"/>
</g>
<style>
        path { fill: #000; }
        @media (prefers-color-scheme: dark) {
            path { fill: #FFF; }
        }
    </style>
</svg>
