<svg version="1.0" xmlns="http://www.w3.org/2000/svg"
 width="100px" height="100px" viewBox="0 0 1728.000000 1544.000000"
 preserveAspectRatio="xMidYMid meet">


<path d="M8705 15382 c17 -16 136 -123 265 -237 881 -778 1845 -1798 2621
-2775 382 -480 1029 -1365 1021 -1394 -2 -6 -84 -225 -182 -486 -98 -261 -268
-727 -378 -1035 -545 -1523 -3324 -9231 -3331 -9238 -5 -5 -25 -7 -46 -5 l-37
3 -1139 3135 c-626 1724 -1157 3186 -1180 3248 l-41 112 -264 0 -264 0 0
-1667 c0 -918 -3 -2380 -7 -3250 l-6 -1583 -2749 0 -2748 0 5 23 c2 12 18 105
35 207 121 729 368 1770 636 2675 718 2423 1774 4770 3059 6800 87 138 197
311 243 385 164 261 507 768 737 1090 683 956 1394 1809 2221 2665 295 305
806 796 1137 1090 152 136 277 249 277 251 0 2 -136 -109 -302 -247 -632 -524
-1294 -1148 -1884 -1775 -1060 -1126 -2092 -2472 -2817 -3674 -959 -1591
-1711 -3172 -2354 -4945 -501 -1383 -908 -2866 -1142 -4160 -28 -155 -91 -559
-91 -585 0 -7 916 -10 2980 -10 l2980 0 0 3250 0 3250 84 0 c71 0 85 -3 91
-17 4 -10 531 -1460 1171 -3223 640 -1763 1169 -3217 1176 -3233 l11 -27 191
2 191 3 1532 4255 c843 2340 1616 4487 1719 4770 102 283 227 628 276 765 119
329 418 1200 418 1215 0 19 -409 564 -664 885 -979 1232 -2070 2353 -3193
3280 -159 131 -274 224 -258 207z"/>
<path d="M8810 12619 c-400 -22 -827 -156 -1159 -362 -222 -138 -523 -412
-674 -613 -328 -439 -497 -947 -498 -1495 0 -611 223 -1191 634 -1652 186
-208 498 -413 801 -527 180 -68 438 -131 636 -156 166 -21 183 -16 40 12 -283
54 -598 194 -840 372 -165 122 -400 346 -545 522 -255 307 -420 676 -491 1095
-25 145 -25 520 0 670 83 509 299 931 653 1276 298 290 612 470 1000 573 215
57 327 71 588 70 249 -1 379 -17 575 -69 800 -216 1421 -856 1614 -1665 80
-333 76 -732 -10 -1073 -70 -280 -205 -562 -378 -792 -143 -190 -404 -452
-591 -593 -247 -187 -566 -330 -862 -386 -145 -28 -122 -33 46 -11 293 39 607
132 844 250 290 145 525 338 710 583 531 700 658 1591 343 2404 -202 524 -596
977 -1093 1257 -308 174 -703 290 -1038 306 -60 3 -123 7 -140 8 -16 2 -91 0
-165 -4z"/>
<path d="M8748 7793 c18 -2 45 -2 60 0 15 2 0 4 -33 4 -33 0 -45 -2 -27 -4z"/>
<path d="M9088 7793 c18 -2 45 -2 60 0 15 2 0 4 -33 4 -33 0 -45 -2 -27 -4z"/>
<path d="M15142 6893 c202 -510 381 -1001 553 -1523 80 -239 176 -529 215
-645 550 -1627 913 -3070 1126 -4477 l6 -38 -2506 0 c-1378 0 -2506 2 -2506 5
0 6 1888 4256 1970 4435 145 315 1001 2488 999 2535 -1 29 -1 29 -9 -5 -4 -19
-137 -296 -297 -615 -396 -791 -826 -1675 -912 -1875 -39 -91 -522 -1182
-1075 -2425 l-1003 -2260 2785 -3 c1532 -1 2787 0 2790 3 6 6 -32 285 -79 570
-155 945 -407 2016 -720 3070 -110 368 -328 1045 -394 1218 -134 358 -368 913
-570 1352 -132 288 -510 1055 -519 1055 -2 0 64 -170 146 -377z"/>

<style>
        path { fill: #000; }
        @media (prefers-color-scheme: dark) {
            path { fill: #FFF; }
        }
    </style>
</svg>
</svg>
