<?xml version="1.0" standalone="no"?>
<!DOCTYPE svg PUBLIC "-//W3C//DTD SVG 20010904//EN"
 "http://www.w3.org/TR/2001/REC-SVG-20010904/DTD/svg10.dtd">
<svg version="1.0" xmlns="http://www.w3.org/2000/svg"
 width="512.000000pt" height="512.000000pt" viewBox="0 0 512.000000 512.000000"
 preserveAspectRatio="xMidYMid meet">

<g transform="translate(0.000000,512.000000) scale(0.100000,-0.100000)"
fill="#000000" stroke="none">
<path d="M2321 5110 c-1340 -130 -2361 -1283 -2318 -2620 13 -389 97 -726 268
-1069 249 -502 647 -900 1150 -1150 815 -406 1779 -350 2539 147 297 194 579
482 771 788 74 116 184 342 234 478 51 138 110 376 131 531 23 157 26 521 6
660 -59 415 -191 769 -410 1099 -92 140 -185 254 -315 385 -399 403 -895 653
-1462 737 -122 18 -466 26 -594 14z m-516 -1565 c77 -20 195 -76 259 -122 l51
-36 100 17 c248 42 469 44 693 5 l112 -19 48 35 c62 44 181 100 257 120 33 9
107 19 166 22 l105 6 26 -59 c15 -33 32 -81 39 -107 15 -60 6 -229 -15 -306
l-15 -53 39 -52 c57 -77 109 -189 137 -295 62 -240 31 -583 -70 -776 -48 -93
-163 -201 -268 -253 -89 -44 -218 -81 -359 -104 -118 -18 -938 -18 -1063 0
-146 21 -277 59 -377 108 -76 38 -110 62 -171 123 -83 82 -116 138 -160 269
-87 256 -76 543 29 767 20 43 58 109 85 145 26 35 45 71 42 79 -3 7 -12 52
-20 99 -26 150 -18 238 35 361 l24 54 105 -6 c58 -3 133 -13 166 -22z"/>
<path d="M1913 2596 c-178 -58 -276 -213 -275 -430 2 -235 122 -393 357 -469
134 -44 226 -52 575 -52 370 1 447 9 597 63 209 77 309 206 328 424 15 169
-62 346 -186 424 -93 59 -199 66 -440 32 -191 -27 -418 -28 -564 -4 -143 24
-339 30 -392 12z m223 -142 c125 -60 173 -290 94 -450 -39 -80 -84 -114 -150
-114 -175 0 -261 295 -142 490 18 30 42 53 72 68 53 26 80 28 126 6z m980 0
c168 -80 178 -439 16 -546 -36 -24 -108 -23 -148 1 -163 99 -159 455 6 539 53
26 80 28 126 6z"/>
</g>
<style>
        path { fill: #000; }
        @media (prefers-color-scheme: dark) {
            path { fill: #FFF; }
        }
    </style>
</svg>
