<?xml version="1.0" standalone="no"?>
<!DOCTYPE svg PUBLIC "-//W3C//DTD SVG 20010904//EN"
 "http://www.w3.org/TR/2001/REC-SVG-20010904/DTD/svg10.dtd">
<svg version="1.0" xmlns="http://www.w3.org/2000/svg"
 width="512.000000pt" height="512.000000pt" viewBox="0 0 512.000000 512.000000"
 preserveAspectRatio="xMidYMid meet">

<g transform="translate(0.000000,512.000000) scale(0.100000,-0.100000)"
fill="#000000" stroke="none">
<path d="M3180 5106 c-176 -45 -322 -161 -402 -319 -32 -65 -68 -192 -68 -244
l0 -33 -150 0 -150 0 0 -225 0 -225 33 0 c55 0 184 -37 250 -72 81 -42 203
-164 245 -245 42 -80 72 -198 72 -283 0 -85 -30 -204 -72 -283 -44 -82 -165
-203 -245 -245 -66 -35 -195 -72 -250 -72 l-33 0 0 -225 0 -225 419 0 419 0
-45 -127 c-39 -112 -44 -136 -40 -191 12 -164 132 -277 297 -277 165 0 285
113 297 277 4 55 -1 79 -40 191 l-45 127 419 0 419 0 0 150 0 150 33 0 c53 0
179 36 245 69 138 70 255 205 303 352 34 105 34 253 0 358 -48 147 -165 282
-303 352 -66 33 -192 69 -245 69 l-33 0 0 300 0 300 -300 0 -300 0 0 33 c0 53
-36 179 -69 245 -68 136 -197 248 -341 299 -92 32 -235 40 -320 19z"/>
<path d="M1945 4485 c-917 -135 -1657 -798 -1881 -1683 -28 -111 -64 -322 -64
-378 0 -12 36 -14 230 -14 l230 0 0 33 c0 55 37 184 72 250 42 80 163 201 245
245 79 42 198 72 283 72 85 0 203 -30 283 -72 81 -42 203 -164 245 -245 35
-66 72 -195 72 -250 l0 -33 225 0 225 0 0 419 0 419 128 -45 c108 -37 135 -44
183 -40 108 9 206 75 257 171 22 42 26 64 26 126 0 62 -4 84 -26 126 -51 96
-149 162 -257 171 -48 4 -75 -3 -183 -40 l-128 -45 0 414 0 414 -37 -1 c-21
-1 -78 -7 -128 -14z"/>
<path d="M965 2693 c-97 -35 -162 -102 -190 -196 -23 -78 -18 -122 29 -259
l44 -128 -425 0 -425 0 7 -62 c36 -336 137 -645 302 -924 316 -533 818 -911
1407 -1060 90 -23 333 -64 379 -64 16 0 17 18 17 230 l0 230 -33 0 c-55 0
-184 37 -250 72 -82 44 -203 165 -245 245 -42 80 -72 198 -72 283 0 85 30 203
72 283 42 80 163 201 245 245 66 35 195 72 250 72 l33 0 0 225 0 225 -419 0
-419 0 45 128 c38 110 44 135 40 188 -8 113 -67 203 -163 250 -71 35 -160 41
-229 17z"/>
<path d="M2410 1692 l0 -419 -127 44 c-110 38 -136 43 -186 39 -166 -13 -300
-165 -284 -321 15 -142 138 -260 286 -272 47 -3 76 3 184 40 l127 44 0 -424 0
-424 63 6 c1038 106 1864 906 2012 1950 8 55 15 112 15 128 l0 27 -220 0 -220
0 0 -33 c0 -55 -37 -184 -72 -250 -44 -82 -165 -203 -245 -245 -80 -42 -198
-72 -283 -72 -85 0 -204 30 -283 72 -82 44 -203 165 -245 245 -35 66 -72 195
-72 250 l0 33 -225 0 -225 0 0 -418z"/>
</g>
<style>
        path { fill: #000; }
        @media (prefers-color-scheme: dark) {
            path { fill: #FFF; }
        }
    </style>
</svg>
