<?xml version="1.0" standalone="no"?>
<!DOCTYPE svg PUBLIC "-//W3C//DTD SVG 20010904//EN"
 "http://www.w3.org/TR/2001/REC-SVG-20010904/DTD/svg10.dtd">
<svg version="1.0" xmlns="http://www.w3.org/2000/svg"
 width="877.000000pt" height="452.000000pt" viewBox="0 0 877.000000 452.000000"
 preserveAspectRatio="xMidYMid meet">

<g transform="translate(0.000000,452.000000) scale(0.100000,-0.100000)"
fill="#000000" stroke="none">
<path d="M2193 4510 c-13 -5 -23 -14 -23 -20 0 -6 -10 -15 -23 -21 -14 -6 -37
-37 -55 -74 -17 -35 -46 -84 -64 -108 -18 -25 -62 -88 -98 -142 -36 -53 -84
-124 -107 -156 -24 -33 -43 -65 -43 -73 0 -19 -40 -67 -51 -61 -5 4 -9 -9 -9
-28 0 -22 -8 -43 -25 -61 -14 -15 -25 -33 -25 -40 0 -8 -7 -19 -15 -26 -13
-11 -15 -3 -15 61 0 90 -18 125 -87 169 -94 59 -94 60 -205 -92 -116 -160
-109 -154 -102 -78 3 36 13 85 22 110 19 54 22 212 4 218 -7 2 -12 8 -12 13 0
6 -9 29 -19 52 -11 24 -23 55 -26 69 -4 15 -13 32 -21 39 -27 22 -41 2 -53
-78 -14 -89 -62 -293 -96 -403 -12 -41 -29 -100 -38 -130 -23 -80 -64 -258
-72 -310 -8 -54 3 -67 85 -103 66 -29 84 -25 167 31 48 33 62 48 73 84 l14 43
6 -30 c6 -28 7 -26 20 28 7 31 19 62 27 68 7 6 13 25 13 41 0 36 16 68 35 68
18 0 45 39 38 56 -3 8 0 14 7 14 7 0 10 -10 6 -27 -5 -23 -10 -278 -7 -375 1
-23 10 -32 51 -53 28 -14 55 -23 60 -20 5 3 32 7 59 9 59 3 80 19 107 79 11
23 26 49 35 58 9 9 33 57 54 108 21 51 46 98 55 104 31 22 42 54 31 92 -9 32
-7 36 17 47 26 13 136 178 209 312 20 38 44 71 53 73 9 3 24 21 34 41 9 20 22
45 29 54 14 17 83 28 209 33 l68 2 -22 -36 c-12 -20 -28 -46 -37 -59 -18 -30
-44 -76 -69 -127 -13 -25 -35 -48 -59 -61 -46 -26 -198 -90 -233 -98 -14 -3
-35 -15 -47 -25 -19 -16 -21 -23 -13 -53 21 -75 96 -111 188 -90 39 9 43 8 36
-6 -12 -31 -24 -104 -18 -114 4 -5 -4 -24 -16 -40 -19 -25 -21 -35 -11 -49 6
-10 11 -29 11 -42 0 -50 102 -171 153 -181 96 -20 132 -13 267 49 156 72 308
135 324 135 9 0 24 8 34 18 11 9 33 25 50 34 20 11 32 25 32 38 0 23 -23 26
-60 7 -133 -70 -524 -162 -544 -128 -5 7 4 11 26 12 l33 1 -35 12 c-27 10 -35
19 -37 39 -1 15 2 29 8 32 5 4 9 13 9 21 0 7 8 32 17 54 15 34 22 40 48 40
l30 1 -28 15 c-15 8 -26 18 -24 22 7 12 35 77 41 95 3 9 14 20 23 24 10 3 37
14 59 24 23 10 57 18 76 17 18 -1 42 4 53 9 11 6 38 13 60 17 62 11 75 16 75
32 0 8 6 14 13 14 8 0 24 11 37 25 13 14 28 25 34 25 6 0 0 -9 -14 -20 -19
-14 -22 -22 -13 -31 17 -17 63 -3 63 21 0 14 9 21 38 25 69 11 78 14 113 38
35 24 46 47 33 75 -4 9 -6 22 -5 29 1 7 -17 11 -51 11 -29 1 -64 1 -78 2 -43
2 -94 -12 -116 -31 -17 -16 -26 -17 -55 -9 -18 6 -56 8 -84 5 -49 -6 -47 -5
64 50 62 30 139 63 170 72 126 36 230 81 275 119 43 36 46 41 40 74 -13 72
-47 104 -139 128 -50 14 -239 7 -398 -13 -105 -14 -120 -14 -141 0 -29 19 -71
6 -81 -24 -7 -23 -10 -24 -137 -43 l-88 -14 0 33 c0 37 -41 82 -95 104 -16 7
-34 19 -38 26 -9 15 -13 15 -44 3z m83 -78 c11 -6 28 -20 38 -31 17 -18 18
-24 6 -46 -14 -26 -56 -45 -101 -45 -15 0 -30 -4 -33 -9 -7 -10 -85 -26 -92
-18 -10 10 56 126 75 132 11 3 23 14 26 25 5 15 11 17 34 10 16 -4 37 -12 47
-18z m399 -58 c20 -13 32 -14 78 -4 67 13 165 15 237 4 l55 -9 -68 -13 c-105
-19 -257 -100 -257 -136 0 -4 -18 -35 -40 -67 -22 -32 -40 -64 -40 -69 0 -6
-15 -27 -34 -46 -41 -43 -39 -69 6 -60 21 4 28 2 26 -7 -3 -6 -21 -14 -41 -17
-36 -5 -77 -31 -77 -49 0 -19 22 -23 65 -11 27 8 49 9 60 3 13 -8 8 -12 -25
-23 -49 -16 -83 -55 -77 -87 5 -27 1 -28 -19 -8 -12 12 -19 12 -37 2 -47 -26
-87 -72 -103 -119 -8 -26 -20 -50 -25 -53 -5 -4 -9 -21 -9 -38 0 -18 -5 -49
-11 -70 -7 -26 -7 -42 0 -51 6 -6 8 -21 5 -33 -4 -15 6 -33 40 -68 l45 -48 93
6 c51 3 104 8 118 12 14 3 -11 -13 -55 -35 -60 -30 -97 -42 -145 -46 -75 -6
-108 9 -156 71 -25 33 -27 43 -26 108 3 87 4 94 24 132 8 17 18 47 22 67 4 21
14 42 24 47 14 8 15 14 6 28 -13 20 -17 20 -94 -2 -77 -21 -136 -20 -163 5
-16 16 -19 24 -11 37 13 20 13 20 149 78 60 26 121 55 136 66 15 10 46 54 69
97 24 42 65 114 92 160 54 90 57 119 10 107 -15 -4 -58 -9 -97 -11 -38 -2 -85
-7 -103 -10 l-33 -5 28 40 c34 48 37 50 183 70 108 16 116 18 128 44 15 32 16
32 47 11z m608 -24 c12 0 17 -8 17 -28 0 -34 -23 -68 -58 -86 -40 -20 -243
-88 -248 -83 -3 2 32 28 78 57 115 73 129 87 118 116 -8 20 -6 24 11 24 11 0
22 7 26 15 5 14 7 14 23 0 9 -8 24 -15 33 -15z m-301 -52 c-6 -6 -26 -12 -44
-14 l-33 -3 30 14 c39 18 64 20 47 3z m-743 -50 c-9 -16 -14 -19 -17 -9 -2 7
2 17 9 22 20 13 21 11 8 -13z m-109 -27 c-16 -32 -30 -34 -30 -7 0 19 5 26 20
26 17 0 19 -3 10 -19z m819 -37 c-12 -15 -145 -85 -221 -117 l-36 -15 25 56
c14 32 29 62 34 68 6 7 44 12 96 13 47 0 88 3 91 6 13 13 23 3 11 -11z m-1740
-94 l0 -35 -14 25 c-8 14 -14 38 -15 54 0 28 1 29 15 10 8 -10 14 -35 14 -54z
m864 57 c7 -19 -27 -60 -52 -62 -22 -2 -28 9 -10 20 5 4 14 18 19 31 10 26 35
32 43 11z m-904 -101 c-9 -8 -10 -7 -5 7 3 10 7 24 7 30 1 7 3 4 6 -7 3 -10
-1 -23 -8 -30z m78 -78 c-3 -8 -6 -5 -6 6 -1 11 2 17 5 13 3 -3 4 -12 1 -19z
m1883 3 l25 -7 -35 -22 c-40 -25 -75 -28 -83 -8 -6 16 29 45 53 44 8 0 26 -3
40 -7z m-260 -46 c0 -15 6 -25 15 -25 31 0 1 -27 -47 -43 -48 -15 -53 -15 -70
0 -17 15 -15 17 27 44 25 16 45 33 45 39 0 5 7 10 15 10 9 0 15 -9 15 -25z
m-1338 -37 c32 -22 52 -44 59 -67 17 -51 7 -207 -17 -261 -12 -25 -19 -51 -16
-58 8 -24 38 -11 60 28 12 22 29 40 37 40 8 0 15 6 16 13 0 9 2 9 6 0 2 -7 -3
-33 -12 -58 -10 -24 -15 -51 -12 -60 7 -17 37 -21 37 -4 0 5 5 7 10 4 6 -4 7
-11 4 -17 -4 -5 -8 -30 -9 -54 -2 -25 -17 -74 -34 -109 l-30 -65 -68 0 c-37 0
-75 5 -83 10 -13 8 -14 48 -11 280 2 148 1 270 -2 270 -3 0 -19 -19 -36 -42
-17 -23 -31 -35 -31 -27 0 7 9 25 20 39 19 25 27 60 13 60 -5 0 -14 4 -21 9
-11 6 -6 18 19 55 18 25 38 46 43 46 6 0 32 -15 58 -32z m1428 28 c0 -3 -4 -8
-10 -11 -5 -3 -10 -1 -10 4 0 6 5 11 10 11 6 0 10 -2 10 -4z m-235 -56 c-27
-12 -43 -12 -25 0 8 5 22 9 30 9 10 0 8 -3 -5 -9z m-1631 -162 c8 -18 17 -48
21 -65 7 -36 40 -46 52 -16 5 14 8 13 15 -7 6 -16 14 -21 29 -17 18 5 20 2 15
-19 -3 -13 -9 -36 -13 -51 l-6 -27 34 21 c19 12 43 37 54 57 30 55 39 43 10
-14 -14 -27 -25 -56 -25 -65 0 -8 -13 -37 -30 -63 -16 -27 -30 -52 -30 -56 0
-8 -38 -46 -46 -46 -4 0 -22 -16 -41 -35 -40 -41 -48 -42 -108 -13 -57 28 -57
36 -9 223 20 77 40 159 46 183 5 23 11 42 13 42 2 0 11 -15 19 -32z m716 -25
c0 -5 -18 -44 -40 -88 -21 -44 -37 -68 -35 -53 2 14 9 37 17 50 7 12 14 28 14
33 1 6 3 13 4 18 4 12 7 26 9 37 1 11 31 14 31 3z"/>
<path d="M4382 4509 c-32 -13 -244 -221 -299 -294 -46 -61 -103 -164 -103
-187 0 -6 -9 -22 -20 -34 -15 -15 -22 -37 -24 -80 -1 -33 -10 -72 -19 -89 -9
-16 -19 -37 -23 -47 -3 -9 -15 -18 -26 -21 -12 -3 -19 -13 -17 -24 1 -10 -5
-35 -14 -56 -9 -21 -21 -65 -27 -98 -6 -34 -16 -73 -22 -87 l-10 -27 -9 25
c-20 56 -100 74 -238 54 -53 -8 -114 -18 -136 -23 -22 -6 -41 -8 -44 -6 -2 3
12 40 32 83 20 44 50 124 68 178 17 54 38 106 45 115 8 9 11 19 8 22 -4 4 5
24 18 45 72 107 148 293 148 359 0 40 -5 51 -38 83 -44 41 -122 75 -155 66
-27 -7 -67 -74 -67 -113 0 -15 -9 -46 -19 -68 -10 -22 -21 -58 -25 -80 -4 -22
-14 -53 -21 -70 -7 -16 -16 -39 -19 -50 -9 -33 -51 -149 -58 -160 -10 -16 -64
-165 -83 -230 -10 -33 -29 -88 -42 -122 -12 -34 -23 -78 -23 -97 0 -29 -4 -36
-19 -36 -27 0 -51 -42 -51 -89 0 -34 6 -45 45 -79 47 -41 102 -72 128 -72 8 0
63 25 122 55 92 47 279 117 303 114 42 -7 86 4 106 26 l23 25 1 -43 c2 -85 54
-156 142 -196 53 -24 91 -26 129 -7 15 8 51 18 79 22 40 5 57 14 87 44 21 22
44 36 51 33 9 -3 14 3 14 18 1 27 29 113 48 144 9 16 13 17 21 6 5 -8 23 -15
40 -16 29 -2 31 1 31 31 0 18 20 75 45 127 25 52 45 98 45 103 0 4 15 23 33
42 17 19 27 33 22 31 -102 -38 -122 -49 -168 -93 -27 -28 -69 -76 -92 -107
-60 -82 -160 -175 -231 -215 -33 -19 -64 -34 -69 -34 -4 0 -4 19 -1 43 4 27 1
51 -8 69 -12 23 -11 36 10 118 23 87 50 150 65 150 8 0 31 64 35 95 4 38 35
107 72 163 21 32 50 82 65 113 16 32 59 89 103 135 l75 79 -6 -44 c-3 -24 -29
-89 -57 -144 -37 -71 -49 -104 -42 -114 12 -19 127 -63 166 -63 16 0 44 6 62
14 43 18 85 101 121 238 23 87 25 103 15 164 -13 78 -18 89 -58 128 -22 20
-53 34 -109 47 -87 21 -98 22 -131 8z m176 -66 c55 -28 74 -61 80 -141 4 -58
0 -85 -27 -168 -50 -161 -82 -195 -163 -173 -22 5 -50 15 -63 21 l-23 10 46
95 c53 110 68 197 37 219 -32 24 -83 -11 -167 -116 -34 -41 -70 -95 -81 -120
-11 -25 -37 -70 -57 -100 -21 -30 -50 -87 -65 -125 -15 -39 -38 -90 -50 -115
-12 -25 -30 -69 -39 -97 -11 -33 -23 -53 -33 -53 -8 0 -17 -9 -20 -20 -3 -11
-11 -20 -18 -20 -18 0 15 118 35 123 24 6 77 134 64 155 -8 11 -5 26 8 53 17
36 16 69 -3 69 -14 0 -10 26 6 40 27 23 49 78 36 94 -19 23 61 130 200 270
l129 129 66 -6 c37 -4 82 -14 102 -24z m-950 -81 c19 -21 22 -34 17 -62 -13
-72 -90 -247 -137 -310 -10 -15 -25 -44 -33 -65 -14 -43 -23 -49 -44 -36 -11
7 -12 13 -4 23 6 7 14 36 18 63 4 28 12 56 17 63 16 18 -7 62 -31 62 -11 0
-25 -8 -30 -17 -9 -15 -10 -15 -11 -3 0 9 4 20 9 26 9 10 81 242 81 263 0 6 7
22 16 36 l15 24 47 -20 c26 -11 57 -32 70 -47z m-259 -477 c-11 -33 -27 -67
-36 -75 -14 -13 -15 -13 -7 0 5 8 9 27 10 43 1 23 44 101 51 94 1 -2 -7 -29
-18 -62z m-29 -100 c0 -2 -7 -23 -16 -45 -9 -22 -14 -47 -10 -55 5 -15 -12
-65 -23 -65 -3 0 -13 5 -21 10 -13 8 -13 13 3 41 9 17 17 37 17 46 0 18 31 73
42 73 4 0 8 -2 8 -5z m1114 -169 c-3 -9 -10 -16 -15 -16 -5 0 -4 9 3 20 14 22
21 20 12 -4z m-1120 -61 c-4 -8 -8 -15 -10 -15 -2 0 -4 7 -4 15 0 8 4 15 10
15 5 0 7 -7 4 -15z m-126 -87 c-4 -51 -15 -50 147 -8 137 35 289 55 340 46 26
-5 39 -14 45 -32 16 -41 -3 -64 -53 -64 -77 0 -236 -56 -374 -132 l-73 -40
-49 31 c-92 60 -106 102 -41 132 28 14 35 23 37 50 3 39 10 59 19 59 3 0 4
-19 2 -42z m1086 -30 c-4 -7 -21 -30 -37 -52 -25 -31 -28 -42 -19 -56 14 -24
-8 -44 -65 -59 -23 -6 -61 -23 -85 -36 -24 -14 -58 -25 -76 -25 -42 0 -89 24
-97 49 -22 71 -31 151 -16 151 7 0 9 -13 5 -40 -6 -38 -5 -40 20 -40 15 0 26
-6 26 -13 0 -19 47 -57 70 -57 38 0 181 93 248 163 29 29 37 34 26 15z"/>
<path d="M5245 4500 c-29 -14 -44 -16 -58 -8 -21 11 -33 3 -39 -26 -2 -12 -12
-20 -26 -21 -13 -1 -27 -6 -30 -12 -13 -20 -49 -23 -106 -8 -53 14 -61 14 -82
0 -26 -17 -88 -142 -164 -330 -107 -267 -140 -405 -140 -580 0 -122 10 -159
55 -213 49 -57 124 -84 235 -85 113 -2 141 13 274 137 17 15 38 33 47 40 28
19 142 206 211 346 108 217 152 382 146 546 -3 74 -5 83 -12 55 -8 -31 -10
-32 -20 -14 -24 43 -115 111 -169 127 -30 9 -62 16 -70 16 -22 0 -31 18 -17
35 15 18 15 18 -35 -5z m96 -85 c32 -5 121 -63 114 -75 -3 -5 0 -30 5 -57 12
-54 -2 -155 -39 -296 -26 -95 -26 -107 -1 -107 11 0 20 -3 20 -6 0 -17 -132
-261 -186 -344 -71 -109 -176 -209 -262 -251 -61 -30 -188 -24 -252 12 -65 35
-100 107 -100 203 0 95 24 255 50 341 31 101 123 330 181 452 l50 105 42 -7
c23 -4 54 -14 69 -21 35 -18 53 -18 68 1 7 8 24 15 39 15 14 1 39 12 56 25 29
24 45 25 146 10z"/>
<path d="M5235 4327 c-106 -58 -117 -72 -203 -247 -107 -217 -173 -367 -182
-410 -4 -19 -20 -81 -35 -137 -23 -88 -25 -108 -15 -138 24 -72 93 -71 173 3
71 67 190 239 253 367 30 60 54 117 54 125 0 9 4 20 9 26 5 5 21 56 36 113 24
91 27 116 21 193 -3 49 -11 98 -16 109 -14 25 -45 24 -95 -4z m59 -59 c18 -85
17 -104 -4 -195 -26 -115 -55 -194 -111 -306 -46 -92 -153 -250 -213 -315 -82
-90 -133 -90 -123 0 8 65 63 252 93 315 13 28 24 54 24 58 0 3 40 88 89 189
88 183 113 219 189 267 39 25 49 23 56 -13z"/>
<path d="M6513 4468 c-11 -13 -28 -35 -38 -50 -9 -16 -26 -28 -37 -28 -18 0
-19 -2 -7 -17 8 -10 9 -14 2 -10 -7 5 -21 -11 -38 -42 -15 -27 -37 -54 -48
-61 -12 -6 -48 -44 -80 -84 -65 -82 -235 -269 -248 -274 -18 -7 -8 79 25 205
18 71 32 142 31 156 -5 42 -40 81 -92 104 -93 41 -156 63 -179 63 -32 0 -61
-42 -75 -108 -6 -31 -28 -100 -49 -152 -43 -108 -140 -418 -140 -447 0 -10 -4
-23 -10 -29 -5 -5 -14 -39 -20 -74 -6 -36 -14 -87 -19 -114 -9 -58 -1 -106 19
-116 8 -4 30 -12 49 -18 34 -11 35 -11 113 34 19 11 58 78 58 100 0 7 13 45
29 86 16 40 41 106 56 146 l27 74 42 -41 c75 -74 190 -89 260 -36 18 14 37 25
42 25 4 0 18 12 31 28 17 20 22 23 23 10 0 -9 -4 -20 -10 -23 -5 -3 -10 -14
-10 -24 0 -9 -10 -37 -22 -62 -25 -51 -70 -218 -62 -231 3 -5 1 -15 -6 -23 -6
-7 -14 -36 -16 -64 -3 -28 -11 -72 -19 -98 -8 -26 -15 -59 -15 -73 0 -14 -7
-37 -14 -52 -10 -19 -11 -28 -4 -28 7 0 21 -8 32 -19 34 -30 72 -35 97 -10 16
16 23 18 35 8 28 -23 39 8 48 136 2 22 13 60 24 85 25 52 28 90 9 90 -10 0 -5
26 20 98 40 114 94 232 106 232 5 0 7 -6 4 -14 -8 -19 32 -77 63 -94 17 -9 46
-11 94 -7 62 5 68 4 61 -12 -10 -26 -18 -74 -17 -106 1 -15 -7 -36 -18 -47
-18 -18 -18 -22 -5 -55 9 -19 13 -35 10 -35 -15 0 39 -81 82 -122 81 -79 171
-83 318 -13 105 50 254 114 305 132 25 9 50 18 55 19 25 9 100 72 103 87 5 25
-20 21 -117 -17 -187 -75 -476 -138 -495 -107 -5 7 4 11 26 12 l33 1 -32 10
c-36 12 -46 46 -26 88 7 14 19 42 27 63 13 32 19 37 48 37 l33 1 -27 15 c-16
8 -28 16 -28 19 0 18 55 125 65 125 7 0 33 9 57 20 25 11 60 19 79 18 19 0 43
4 54 9 11 6 42 14 68 18 31 5 53 14 60 26 7 11 17 19 23 19 7 0 19 11 28 25 9
14 22 25 29 25 7 -1 5 -6 -5 -14 -26 -20 -23 -46 6 -46 26 0 51 23 42 39 -4 5
14 13 41 17 56 8 110 33 137 63 17 18 18 24 6 45 -7 13 -9 30 -5 37 6 9 -2 10
-34 5 -26 -4 -56 -2 -77 6 -26 9 -37 9 -46 0 -7 -7 -27 -12 -44 -12 -22 0 -38
-8 -51 -24 -15 -19 -21 -21 -31 -10 -9 10 -33 12 -85 9 l-72 -4 85 40 c113 54
156 71 275 109 105 34 171 66 218 104 27 22 28 26 21 72 -9 62 -53 108 -116
119 -70 13 -283 8 -415 -10 -113 -15 -123 -15 -147 0 -29 19 -54 10 -80 -30
-12 -18 -25 -25 -49 -25 -17 0 -83 -11 -144 -23 l-113 -23 0 24 c0 35 -45 87
-100 116 -61 32 -71 32 -97 4z m61 -43 c3 -8 15 -15 26 -15 12 0 24 -9 30 -24
5 -13 15 -28 22 -33 31 -20 16 -41 -41 -57 -32 -9 -68 -16 -82 -16 -35 0 -49
-18 -49 -63 0 -66 13 -79 72 -71 l51 7 -27 -44 c-15 -24 -36 -64 -47 -89 -11
-25 -27 -49 -35 -53 -9 -5 -35 -50 -58 -100 -24 -51 -61 -130 -84 -177 -22
-47 -49 -114 -60 -150 -11 -36 -34 -92 -51 -125 -34 -67 -49 -138 -33 -158 20
-23 7 -71 -21 -85 -15 -7 -27 -17 -27 -22 0 -4 -9 -6 -20 -3 -21 6 -21 2 5
143 21 113 40 176 54 173 7 -2 11 17 11 51 0 30 4 57 9 60 4 3 7 18 5 33 -1
15 4 39 12 53 8 14 23 50 33 80 11 30 20 46 20 36 1 -16 6 -13 26 15 14 19 28
44 32 57 3 12 11 22 17 22 26 0 61 66 57 108 -1 17 -26 15 -41 -3 -26 -32 -29
-13 -5 41 29 65 31 82 10 90 -19 8 -41 -10 -49 -40 -3 -12 -27 -60 -52 -105
-49 -86 -122 -167 -171 -190 -15 -7 -36 -17 -46 -22 -32 -17 -124 18 -155 58
-15 19 -37 47 -50 62 -22 25 -23 25 -35 7 -7 -11 -22 -30 -35 -42 -13 -12 -36
-57 -53 -99 -30 -80 -35 -105 -20 -105 12 0 -61 -180 -73 -180 -6 0 -20 -9
-32 -21 -18 -17 -26 -19 -42 -10 -30 16 -46 74 -33 113 6 17 11 46 11 64 0 34
9 58 61 172 33 71 35 79 14 62 -18 -15 6 77 60 225 20 55 50 143 67 195 48
153 41 143 85 124 21 -9 52 -19 68 -24 41 -9 97 -39 112 -59 18 -23 16 -49
-12 -158 -39 -147 -46 -202 -35 -245 13 -47 22 -52 57 -34 29 14 154 147 257
274 33 39 63 72 67 72 10 0 136 147 171 199 30 44 42 50 52 26z m522 -49 c25
-13 42 -13 129 0 75 12 109 13 136 5 20 -6 52 -11 70 -12 25 0 14 -5 -42 -19
-96 -24 -189 -71 -224 -113 -34 -41 -95 -138 -95 -152 0 -5 -16 -25 -35 -44
-45 -44 -47 -75 -5 -69 20 3 30 0 30 -9 0 -8 -12 -13 -33 -13 -40 0 -77 -24
-77 -51 0 -22 19 -24 66 -7 17 6 40 8 50 4 16 -7 10 -12 -31 -30 -53 -24 -80
-61 -68 -93 5 -17 5 -17 -12 -1 -17 15 -21 16 -49 1 -44 -22 -82 -66 -97 -110
-6 -21 -18 -47 -24 -58 -18 -29 -27 -132 -16 -189 6 -33 19 -58 40 -80 30 -30
35 -31 114 -31 45 0 100 4 122 8 l40 8 -51 -30 c-63 -38 -165 -65 -218 -58
-32 5 -51 16 -88 55 l-47 49 4 89 c2 70 7 97 25 126 12 21 19 41 16 46 -3 5 4
23 15 40 35 60 21 82 -37 57 -21 -9 -70 -18 -108 -21 -63 -5 -73 -4 -93 15
-35 33 -25 45 67 85 181 77 221 97 235 121 7 11 38 67 71 125 32 58 71 125 85
148 34 54 29 77 -15 67 -17 -3 -56 -8 -86 -10 -30 -3 -83 -7 -117 -10 l-62 -6
11 34 c10 33 14 35 87 51 42 9 112 21 156 27 106 13 114 16 121 45 7 28 4 28
40 10z m579 -7 c4 -5 18 -14 31 -19 18 -7 23 -15 20 -32 -11 -59 -29 -73 -146
-116 -90 -33 -180 -62 -180 -57 0 1 50 35 111 76 104 69 110 74 105 101 -4 21
-2 28 10 28 8 0 17 7 20 15 7 18 20 19 29 4z m-270 -71 c-3 -7 -19 -14 -37
-15 -46 -3 -18 17 34 26 4 0 5 -5 3 -11z m-755 -43 c0 -2 -5 -15 -11 -29 -9
-19 -22 -27 -56 -32 -83 -12 -83 36 0 53 29 5 55 11 60 11 4 1 7 0 7 -3z m704
-82 c-27 -23 -234 -127 -234 -118 0 2 13 32 29 68 l30 66 92 0 c50 0 94 3 97
6 3 3 8 5 11 4 3 0 -8 -12 -25 -26z m-444 1 c0 -1 -17 -32 -88 -153 -18 -31
-37 -68 -43 -82 -9 -25 -42 -45 -134 -83 -22 -10 -57 -26 -77 -37 -20 -10 -47
-19 -60 -19 -13 0 -35 -8 -48 -17 l-25 -17 16 24 c9 14 21 42 28 62 7 21 28
56 47 79 19 22 34 46 34 52 0 12 88 165 100 172 4 2 31 7 60 10 29 3 55 7 58
9 3 4 132 4 132 0z m629 -200 c17 -4 31 -10 31 -13 0 -9 -66 -41 -86 -41 -23
0 -29 29 -8 45 22 17 22 17 63 9z m-244 -43 c-4 -12 0 -23 9 -28 23 -12 7 -28
-48 -46 -43 -15 -50 -15 -60 -2 -9 12 -18 13 -45 5 -19 -5 -37 -8 -39 -5 -2 2
14 9 37 15 22 6 59 26 83 45 49 39 72 44 63 16z m85 -21 c0 -5 -5 -10 -11 -10
-5 0 -7 5 -4 10 3 6 8 10 11 10 2 0 4 -4 4 -10z"/>
<path d="M4955 2955 c-19 -8 -38 -10 -51 -4 -24 9 -47 -9 -42 -31 2 -7 -6 -13
-18 -15 -11 -1 -34 -11 -51 -23 -17 -12 -33 -19 -36 -16 -3 3 -31 11 -62 19
-56 13 -57 12 -85 -14 -48 -46 -191 -385 -254 -604 -13 -45 -29 -133 -36 -195
-22 -194 3 -291 89 -347 83 -55 244 -69 323 -29 75 38 209 164 268 253 59 88
155 269 196 371 61 149 84 256 83 389 -1 64 -3 107 -6 96 -7 -26 -23 -44 -23
-24 0 8 -23 36 -50 61 -50 46 -91 66 -178 88 -36 9 -41 14 -32 26 15 17 5 17
-35 -1z m101 -81 c17 -2 48 -17 70 -33 34 -26 40 -37 50 -93 11 -56 10 -75
-12 -179 -13 -64 -31 -138 -39 -165 -10 -34 -11 -52 -3 -61 5 -7 14 -10 19 -7
21 13 5 -31 -52 -142 -92 -178 -170 -289 -255 -364 -41 -36 -81 -66 -89 -68
-8 -2 -15 -7 -15 -12 0 -20 -64 -32 -149 -28 -77 4 -96 8 -136 34 -37 23 -52
40 -67 79 -28 70 -21 268 15 406 48 183 230 609 261 609 7 0 40 -9 74 -21 58
-19 64 -20 87 -5 13 9 30 13 37 11 8 -3 31 8 53 24 40 29 50 30 151 15z"/>
<path d="M4954 2787 c-95 -52 -118 -76 -177 -191 -100 -197 -188 -390 -203
-446 -71 -261 -75 -284 -43 -324 41 -52 117 -24 203 75 77 89 186 266 236 383
76 177 124 400 90 421 -5 3 -10 23 -10 44 0 64 -27 75 -96 38z m61 -101 c18
-192 -94 -471 -293 -729 -45 -59 -114 -117 -138 -117 -7 0 -18 9 -24 20 -8 15
-5 44 15 123 33 132 65 228 82 248 7 8 13 21 13 27 0 14 76 178 147 318 51 99
77 129 148 167 17 9 33 16 37 17 3 0 9 -33 13 -74z"/>
<path d="M4088 2929 c-81 -9 -164 -23 -185 -30 -21 -7 -42 -12 -46 -11 -5 1
-27 -3 -50 -10 -23 -6 -51 -13 -62 -14 -11 -1 -45 -10 -75 -19 -30 -9 -84 -23
-120 -31 -64 -14 -271 -78 -300 -93 -28 -15 -22 -59 20 -145 23 -47 47 -87 53
-89 20 -7 114 19 144 39 33 22 49 29 211 96 68 28 125 49 127 47 3 -4 -113
-292 -190 -469 -111 -257 -160 -409 -149 -459 12 -54 16 -61 35 -61 18 0 32
12 142 131 51 53 117 176 117 216 0 13 9 28 21 35 29 19 114 164 161 276 62
150 74 171 97 165 28 -7 50 35 27 52 -15 11 -13 18 16 75 32 60 34 62 103 85
39 13 87 24 108 25 21 0 47 4 57 10 13 7 19 6 24 -5 7 -20 35 -19 89 4 74 32
95 82 57 131 -11 14 -20 31 -20 38 0 14 -10 16 -62 13 -21 -2 -38 1 -38 6 0
15 -155 11 -312 -8z m66 -64 c4 -11 23 -15 81 -15 43 0 75 -4 75 -10 0 -6 28
-10 65 -10 57 0 65 2 65 19 0 18 2 19 31 4 29 -14 30 -16 13 -34 -10 -12 -25
-17 -35 -14 -32 10 -171 -14 -273 -48 -91 -29 -101 -35 -115 -66 -9 -19 -40
-82 -69 -140 -29 -58 -73 -153 -98 -211 -24 -59 -52 -115 -62 -126 -9 -10 -25
-36 -34 -57 -10 -20 -28 -42 -41 -48 -25 -11 -40 -40 -67 -129 -19 -62 -42
-96 -129 -190 -51 -55 -51 -55 -51 -26 0 35 40 171 70 239 12 28 28 47 37 47
32 0 60 73 32 82 -11 4 17 75 150 393 21 50 44 107 50 128 8 22 19 37 29 37
11 0 13 3 5 11 -11 11 18 134 36 152 15 15 76 25 157 26 55 1 73 -2 78 -14z
m-497 -81 c-3 -3 -12 -4 -19 -1 -8 3 -5 6 6 6 11 1 17 -2 13 -5z m-72 -25
c-22 -10 -47 -19 -55 -19 -43 0 -53 -54 -14 -72 24 -11 67 -5 127 17 11 5 17
2 17 -8 0 -9 -20 -23 -47 -34 -27 -10 -86 -37 -131 -60 -111 -56 -138 -61
-148 -31 -4 13 -18 40 -30 60 -41 65 -37 70 89 111 141 46 176 55 207 55 21 0
19 -2 -15 -19z"/>
<path d="M6611 1404 c-12 -19 -21 -41 -21 -48 0 -7 -18 -37 -40 -66 -22 -30
-38 -60 -36 -67 3 -7 0 -16 -7 -20 -12 -8 -57 -68 -57 -77 0 -3 -21 -35 -46
-73 -26 -37 -51 -82 -56 -100 -5 -18 -18 -37 -28 -43 -11 -6 -20 -17 -20 -25
0 -7 -10 -26 -23 -42 -13 -15 -27 -35 -31 -43 -60 -121 -71 -135 -122 -151
-27 -9 -69 -19 -94 -23 l-44 -7 94 93 c57 56 115 125 145 173 47 75 50 84 49
145 0 83 -25 165 -61 202 -15 16 -52 41 -82 55 -48 24 -69 27 -170 30 -104 3
-118 5 -151 28 -20 14 -43 25 -51 25 -25 0 -57 -42 -61 -80 -3 -32 -6 -35 -53
-48 -27 -8 -58 -18 -67 -23 -10 -5 -24 -9 -32 -9 -8 0 -19 -6 -23 -14 -4 -8
-35 -27 -68 -43 -128 -62 -275 -174 -275 -211 0 -12 12 -46 26 -74 25 -50 26
-50 64 -45 22 3 51 14 66 26 14 11 65 32 112 47 48 15 100 33 115 41 26 13 27
13 17 -4 -6 -10 -39 -89 -74 -175 -56 -140 -67 -161 -100 -183 -37 -25 -81
-41 -102 -37 -7 1 -24 -2 -38 -8 -21 -8 -26 -16 -26 -45 0 -25 4 -35 15 -35 9
0 20 -11 25 -25 5 -14 16 -25 25 -25 8 0 15 -5 15 -10 0 -6 11 -15 23 -21 21
-10 23 -15 16 -47 -4 -21 -12 -53 -18 -72 -14 -44 -14 -96 -1 -120 6 -11 27
-24 47 -29 33 -9 42 -8 74 15 21 14 44 33 52 42 21 23 87 176 87 200 0 41 14
53 119 106 58 29 133 70 166 89 32 20 60 35 62 33 2 -1 5 -23 7 -48 4 -44 36
-121 55 -132 8 -5 -66 -154 -119 -241 -22 -35 -18 -43 30 -71 79 -46 110 -32
161 67 16 32 33 59 38 59 6 0 13 9 16 20 4 11 10 18 13 16 16 -10 41 24 71 96
18 41 41 84 51 93 11 10 20 23 20 29 0 7 17 11 39 11 23 0 47 8 58 18 30 27
36 21 29 -30 -4 -27 -9 -64 -11 -83 -3 -19 -7 -53 -10 -75 -13 -93 -15 -211
-4 -231 17 -33 137 -49 164 -23 6 6 10 38 11 72 1 39 10 88 26 132 14 39 33
115 43 171 l18 100 56 -4 c31 -2 58 -6 60 -8 2 -2 -3 -39 -12 -81 -26 -124
-28 -157 -12 -211 31 -103 181 -186 259 -142 17 10 53 20 81 24 38 5 57 14 85
41 20 19 41 35 48 35 7 0 12 7 12 15 0 8 6 29 14 47 8 18 17 44 20 58 3 14 12
34 20 45 15 20 15 20 31 -3 12 -17 20 -20 29 -13 7 6 15 8 18 6 3 -3 8 9 11
27 4 25 68 178 83 196 1 2 14 -4 29 -14 21 -14 39 -16 96 -11 64 5 70 4 64
-11 -10 -25 -18 -73 -17 -106 1 -18 -6 -37 -18 -48 -22 -21 -25 -34 -10 -43 6
-3 10 -19 10 -34 0 -34 45 -106 93 -148 77 -68 183 -65 328 7 43 22 107 51
142 64 35 13 83 34 106 46 24 12 53 22 64 23 30 3 137 79 137 98 0 18 -29 21
-62 5 -131 -61 -360 -124 -472 -131 -52 -3 -70 -1 -51 4 l30 8 -31 12 c-38 14
-49 50 -28 90 8 14 20 43 28 64 12 30 20 37 43 38 27 0 27 1 6 11 -13 6 -23
15 -23 19 0 21 53 126 63 126 7 0 34 10 61 22 29 14 58 20 71 17 13 -3 36 -1
52 6 15 6 33 12 38 13 53 7 87 22 118 50 31 29 37 31 37 15 0 -10 5 -22 10
-25 15 -9 60 22 60 40 0 10 11 15 33 15 65 1 165 66 151 99 -4 9 -7 24 -8 34
0 14 -10 17 -49 17 -26 0 -58 5 -69 11 -14 8 -23 8 -31 0 -6 -6 -26 -11 -44
-11 -23 0 -42 -8 -58 -24 -14 -14 -27 -21 -30 -16 -9 15 -88 22 -117 11 -18
-7 -28 -7 -28 -1 0 6 4 10 10 10 5 0 55 23 111 50 56 28 125 56 153 64 107 29
220 77 268 113 49 38 49 38 43 82 -7 46 -32 90 -51 91 -6 0 -17 7 -24 15 -7 8
-16 13 -20 10 -5 -3 -28 1 -52 9 -24 8 -68 12 -98 10 -30 -1 -91 -5 -135 -8
-86 -5 -229 -23 -256 -31 -9 -3 -22 1 -29 10 -7 8 -26 15 -42 15 -22 0 -33 -7
-46 -30 -12 -21 -25 -30 -44 -30 -32 0 -266 -46 -301 -59 -24 -9 -25 -8 -31
33 -4 24 -20 61 -37 84 -25 35 -42 45 -96 62 -36 11 -89 20 -119 20 l-54 0
-120 -116 c-65 -63 -137 -139 -159 -167 -48 -63 -114 -176 -114 -197 0 -8 -9
-25 -20 -37 -14 -16 -21 -39 -22 -75 -2 -29 -3 -58 -4 -64 0 -6 -12 -28 -26
-48 -13 -20 -21 -36 -17 -37 4 0 -2 -4 -12 -8 -11 -4 -42 -1 -72 8 l-52 16 -4
50 c-3 36 2 59 15 83 11 17 17 32 14 32 -3 0 7 39 24 87 31 93 34 107 19 83
-5 -8 -10 -10 -10 -4 0 6 8 22 18 35 30 39 74 174 69 209 -3 19 -21 46 -46 70
-23 22 -41 47 -41 56 0 13 -3 14 -14 5 -11 -9 -21 -7 -48 9 -49 30 -73 26 -97
-16z m107 -46 c23 -18 42 -36 42 -40 0 -5 11 -13 25 -18 18 -7 25 -17 25 -36
0 -31 -38 -142 -55 -164 -18 -22 -56 -98 -53 -107 4 -17 -14 -103 -32 -152
-22 -57 -87 -152 -77 -113 4 17 2 21 -7 13 -18 -15 -58 -2 -52 18 3 9 10 36
16 61 15 57 26 70 59 70 l26 1 -28 15 c-25 13 -27 19 -21 47 3 17 11 38 16 47
7 11 5 30 -6 63 -12 37 -13 52 -4 72 8 18 8 28 0 38 -9 10 -4 30 22 83 18 38
31 74 29 81 -5 14 14 53 26 53 4 0 26 -14 49 -32z m745 18 c74 -17 113 -53
126 -115 5 -25 8 -47 6 -49 -2 -2 -23 -6 -47 -9 -74 -10 -81 -17 -76 -80 5
-62 18 -75 62 -62 17 5 32 9 33 9 8 0 0 -32 -23 -92 -28 -73 -61 -108 -103
-108 -21 0 -107 26 -120 37 -3 2 16 45 42 96 70 136 75 227 13 227 -43 0 -174
-147 -228 -254 -17 -34 -45 -81 -63 -106 -17 -25 -35 -58 -38 -72 -4 -15 -25
-65 -46 -110 -21 -46 -46 -107 -57 -135 -10 -30 -26 -55 -35 -58 -10 -4 -21
-15 -24 -26 -4 -10 -10 -17 -15 -14 -13 8 21 125 36 125 15 0 44 52 64 114 10
30 10 40 0 46 -9 6 -8 15 4 38 20 39 20 69 1 80 -14 7 -14 11 3 33 35 44 51
84 41 101 -15 27 64 134 201 271 142 140 137 138 243 113z m-1660 -80 c29 -21
45 -24 159 -29 114 -4 132 -8 172 -31 57 -33 76 -61 76 -109 0 -21 7 -49 16
-62 24 -37 10 -77 -63 -187 -41 -62 -92 -121 -141 -166 -77 -68 -229 -169
-240 -158 -3 4 -15 -3 -26 -13 -23 -22 -120 -74 -152 -83 -14 -3 -27 -24 -42
-65 -12 -33 -22 -65 -22 -71 0 -6 -13 -39 -29 -74 -28 -61 -74 -108 -104 -108
-27 0 -40 27 -29 59 6 16 8 32 5 35 -3 3 -1 11 4 18 20 25 34 112 25 158 -8
42 -9 43 -15 18 -4 -16 -11 -28 -15 -28 -11 0 -52 47 -52 60 0 5 -7 13 -15 18
-11 6 -1 12 37 21 81 21 139 74 160 148 9 33 45 121 78 197 61 138 82 206 63
206 -6 0 -16 -7 -23 -16 -24 -28 -93 -62 -190 -94 -52 -17 -107 -40 -122 -50
-15 -11 -36 -20 -46 -20 -25 0 -44 43 -33 72 16 43 154 135 290 195 l76 33 5
-27 5 -26 16 35 c13 26 27 37 58 46 46 14 66 42 57 82 -9 47 9 52 57 16z
m2281 -1 c21 -14 36 -14 137 -1 62 8 120 11 128 7 9 -5 34 -12 56 -16 l40 -8
-55 -9 c-92 -14 -260 -105 -260 -140 0 -4 -18 -35 -40 -69 -22 -34 -40 -66
-40 -70 0 -4 -14 -21 -31 -38 -38 -38 -36 -67 5 -63 19 2 27 -1 24 -10 -3 -7
-18 -13 -34 -14 -41 -1 -74 -21 -74 -44 0 -23 34 -27 73 -9 17 8 30 8 43 1 16
-9 13 -12 -24 -27 -51 -21 -86 -65 -77 -97 5 -20 4 -21 -5 -5 -13 20 -29 22
-62 4 -38 -19 -76 -65 -89 -105 -6 -21 -17 -46 -24 -57 -18 -29 -27 -132 -16
-189 11 -59 52 -104 107 -116 35 -8 137 0 199 15 11 3 -10 -10 -46 -29 -76
-40 -158 -62 -213 -58 -31 3 -48 13 -87 53 l-49 50 3 87 c3 65 9 98 25 128 12
23 19 44 15 47 -3 4 4 23 16 43 26 43 21 69 -12 61 -12 -3 -51 -13 -85 -21
-66 -17 -132 -10 -148 15 -13 21 49 67 154 113 59 26 117 54 129 64 12 9 65
91 117 182 70 123 91 168 83 178 -5 7 -17 10 -26 6 -9 -3 -41 -8 -71 -10 -77
-5 -138 -12 -187 -20 -43 -7 -43 -6 -43 24 0 28 4 32 38 41 85 23 172 40 261
52 89 12 94 13 103 41 12 33 12 33 42 13z m611 -27 c12 -2 20 -12 21 -23 1
-40 -25 -73 -78 -98 -57 -27 -239 -90 -244 -84 -2 1 47 35 107 75 107 70 110
73 104 102 -4 17 -3 30 2 29 21 -4 33 2 33 18 0 15 2 15 18 1 9 -9 26 -18 37
-20z m-208 6 c-3 -3 -12 -4 -19 -1 -8 3 -5 6 6 6 11 1 17 -2 13 -5z m-92 -64
c-3 -5 -23 -10 -43 -9 -30 0 -33 2 -17 9 28 12 67 12 60 0z m-1020 -62 c-7
-36 -48 -126 -91 -200 -33 -58 -27 -68 59 -97 66 -23 121 -27 161 -12 31 12
68 75 96 164 26 79 3 70 230 91 14 1 35 0 47 -3 22 -6 22 -6 -9 -56 -45 -71
-87 -146 -98 -176 -6 -14 -23 -32 -38 -41 -42 -25 -208 -96 -242 -103 -37 -8
-86 -50 -70 -60 6 -4 -10 -23 -39 -46 -28 -22 -53 -49 -56 -59 -4 -11 -10 -20
-15 -20 -4 0 -25 -24 -46 -52 -66 -92 -162 -178 -258 -233 l-49 -28 5 47 c3
25 2 48 -2 51 -17 11 -16 59 2 133 11 42 22 87 25 99 3 12 16 35 30 49 14 15
26 32 28 38 1 6 5 18 8 26 3 8 8 26 10 40 10 47 38 113 66 154 16 23 46 74 65
112 35 67 157 214 178 214 6 0 7 -13 3 -32z m219 -12 c-5 -22 -11 -26 -45 -26
-21 0 -39 4 -39 9 0 18 12 41 19 36 4 -2 21 0 37 4 36 10 37 9 28 -23z m756
-46 c-47 -37 -245 -127 -237 -108 3 7 15 36 27 65 l22 52 57 4 c31 2 79 4 106
5 l50 2 -25 -20z m-1928 -149 c-2 -16 -10 -32 -18 -35 -18 -7 -18 -2 1 34 19
38 23 38 17 1z m90 -82 c-6 -29 -17 -56 -25 -60 -8 -5 -18 -27 -22 -48 -7 -42
-27 -58 -45 -36 -8 10 -6 23 9 54 12 22 21 50 21 62 0 12 12 41 27 65 34 54
48 38 35 -37z m2031 31 c26 0 20 -18 -13 -35 -43 -22 -80 -20 -80 5 0 11 7 20
15 20 8 0 15 5 15 11 0 7 9 9 23 5 12 -3 30 -6 40 -6z m-261 -46 c-2 -10 4
-24 14 -31 16 -11 14 -14 -17 -27 -58 -24 -89 -30 -89 -16 0 9 -12 11 -40 7
-48 -6 -45 8 3 17 19 4 52 22 73 41 41 36 61 40 56 9z m-1916 -13 c-17 -32
-50 -52 -39 -23 9 21 35 52 45 52 5 0 2 -13 -6 -29z m2004 -1 c0 -5 -8 -10
-17 -10 -15 0 -16 2 -3 10 19 12 20 12 20 0z m15 -40 c3 -5 1 -10 -4 -10 -6 0
-11 5 -11 10 0 6 2 10 4 10 3 0 8 -4 11 -10z m-2055 -29 c0 -5 -7 -11 -14 -14
-10 -4 -13 -1 -9 9 6 15 23 19 23 5z m-37 -111 c16 -19 16 -20 -12 -20 -24 0
-28 3 -24 20 3 11 8 20 12 20 4 0 14 -9 24 -20z m497 -16 c0 -2 -5 -13 -12
-23 -8 -14 -14 -16 -23 -8 -18 17 -7 46 16 40 10 -3 19 -7 19 -9z m-590 -31
c0 -13 3 -14 12 -5 7 7 17 12 24 12 14 0 -14 -89 -33 -105 -15 -12 -83 -145
-83 -162 0 -7 -8 -20 -19 -30 -10 -10 -24 -36 -31 -58 -16 -50 -56 -132 -70
-140 -5 -3 -23 1 -40 10 l-31 16 47 87 c26 48 57 105 69 127 22 38 25 102 4
90 -14 -9 -39 39 -37 70 1 17 -2 38 -6 48 -7 13 -3 17 15 18 13 0 53 9 89 19
84 23 90 23 90 3z m300 -17 c0 -3 -4 -8 -10 -11 -5 -3 -10 -1 -10 4 0 6 5 11
10 11 6 0 10 -2 10 -4z m890 -56 c-6 -12 -14 -20 -17 -17 -2 3 1 14 8 26 17
26 24 19 9 -9z m-800 -92 c-11 -58 -30 -132 -42 -164 -11 -33 -23 -87 -25
-122 -5 -66 -9 -70 -62 -55 -21 5 -23 10 -18 56 2 28 1 63 -3 78 -7 24 -5 28
13 31 21 3 29 26 67 193 10 45 -33 49 -49 5 -17 -50 -19 -34 -3 24 14 52 16
54 36 41 12 -7 33 -15 47 -19 21 -4 29 -1 39 19 7 14 15 23 17 21 2 -1 -6 -50
-17 -108z m644 -80 c-4 -7 -20 -30 -36 -50 -21 -27 -27 -43 -23 -61 5 -19 1
-29 -16 -41 -13 -9 -32 -16 -42 -16 -10 0 -47 -16 -83 -35 -73 -40 -89 -42
-138 -18 -26 12 -39 27 -47 52 -6 20 -13 43 -16 51 -11 27 -12 45 -6 68 9 36
20 25 19 -20 -1 -36 2 -43 18 -43 11 0 22 -7 24 -15 6 -19 50 -60 63 -60 36 0
190 104 259 175 26 27 35 32 24 13z"/>
<path d="M5964 1145 c-70 -22 -82 -32 -99 -87 -10 -29 -53 -125 -97 -212 -56
-114 -78 -166 -74 -182 5 -18 0 -26 -21 -38 -33 -16 -64 -99 -45 -118 21 -21
302 164 302 199 0 7 14 19 30 28 18 9 30 23 30 35 0 30 -30 25 -81 -12 -24
-18 -62 -41 -84 -50 l-40 -18 40 32 c85 69 219 206 256 261 47 72 61 143 33
164 -22 16 -95 15 -150 -2z m113 -61 c-12 -70 -68 -137 -253 -301 -26 -23 -50
-41 -52 -39 -2 2 26 63 62 136 36 72 68 147 72 165 5 29 13 37 48 49 48 18 72
23 105 25 22 1 23 -2 18 -35z"/>
<path d="M3623 1418 c-26 -32 -65 -184 -66 -258 -1 -41 1 -81 4 -89 3 -10 -6
-17 -26 -20 -28 -6 -31 -13 -65 -116 -19 -61 -39 -117 -45 -125 -5 -8 -10 -24
-11 -35 -2 -31 -45 -199 -55 -211 -4 -5 -11 -48 -15 -93 l-7 -83 26 17 c14 9
28 24 30 33 3 9 5 4 6 -13 1 -27 -27 -116 -40 -129 -3 -3 -3 11 -1 31 3 19 0
38 -5 42 -6 3 -18 21 -27 39 -36 70 -136 80 -339 35 -38 -8 -71 -12 -74 -9 -3
3 13 48 36 100 23 52 53 132 67 178 15 46 30 87 35 93 5 5 9 15 9 22 0 8 20
49 45 91 61 105 125 263 125 310 0 58 -30 96 -104 131 -43 21 -73 30 -89 26
-28 -7 -62 -64 -70 -117 -3 -20 -12 -52 -20 -70 -8 -18 -20 -58 -27 -88 -7
-30 -16 -62 -20 -70 -21 -41 -60 -153 -60 -168 0 -10 -5 -23 -10 -28 -13 -13
-54 -123 -82 -219 -11 -38 -31 -98 -44 -132 -13 -34 -24 -78 -24 -97 0 -29 -4
-36 -20 -36 -23 0 -61 -55 -53 -76 9 -24 -13 -15 -25 10 -12 27 -147 140 -179
150 -13 4 -23 11 -23 15 0 4 -25 20 -55 36 -30 15 -55 31 -55 34 0 3 24 19 52
35 108 59 190 120 273 202 47 47 85 89 85 94 0 5 20 40 45 76 63 94 67 129 31
254 -20 70 -40 97 -101 131 -61 34 -104 41 -217 39 -80 -1 -91 1 -121 24 -61
47 -122 22 -119 -48 1 -31 -2 -36 -33 -46 -18 -6 -46 -13 -61 -16 -15 -3 -32
-8 -38 -12 -6 -3 -17 -7 -25 -9 -8 -1 -18 -9 -23 -18 -12 -20 -28 -10 -28 18
-1 42 -52 87 -107 94 -21 3 -43 9 -48 14 -6 4 -42 6 -80 3 -39 -3 -101 -6
-140 -8 -77 -4 -235 -25 -248 -33 -4 -2 -19 3 -33 12 -36 23 -76 16 -92 -17
-10 -22 -20 -28 -45 -28 -18 -1 -83 -11 -146 -24 l-113 -23 -46 44 c-44 44
-109 83 -135 83 -28 0 -106 -107 -229 -315 -20 -33 -59 -99 -87 -146 -28 -48
-51 -91 -51 -95 -1 -10 -36 -54 -43 -54 -15 0 -39 114 -56 263 -12 106 -25
177 -35 192 -19 28 -73 39 -151 30 -74 -10 -109 -37 -101 -79 21 -123 36 -200
51 -256 17 -70 93 -231 137 -294 l27 -38 -18 -37 c-10 -20 -22 -47 -26 -61 -8
-25 -66 -151 -84 -180 -24 -41 -56 -166 -52 -207 4 -50 103 46 185 181 13 20
21 25 29 17 6 -6 16 -11 22 -11 15 0 56 75 50 91 -3 8 -1 20 4 28 8 12 12 12
24 2 13 -10 19 -6 40 21 41 55 90 155 81 169 -25 41 -2 119 35 119 10 0 26 11
35 25 9 14 25 25 35 25 12 0 34 24 62 65 23 36 49 65 56 65 8 0 12 4 8 9 -8
14 23 61 78 120 l47 50 103 11 c56 6 113 12 127 14 14 1 34 0 46 -3 20 -6 17
-14 -50 -134 l-71 -127 -85 -41 c-130 -62 -143 -67 -175 -74 -16 -3 -40 -15
-53 -25 -21 -17 -22 -23 -12 -59 6 -23 23 -51 42 -67 31 -25 37 -26 105 -21
l71 5 -5 -36 c-3 -20 -9 -44 -13 -52 -5 -8 -6 -27 -3 -41 3 -16 -1 -30 -11
-38 -18 -15 -21 -47 -5 -56 5 -4 8 -14 6 -23 -6 -26 30 -90 78 -137 85 -86
171 -85 356 4 48 22 90 41 94 41 3 0 32 12 63 26 109 51 144 64 152 59 4 -2
20 7 34 20 15 14 31 25 37 25 14 0 49 38 49 55 0 20 -22 19 -73 -3 -102 -44
-129 -54 -251 -87 -76 -20 -162 -37 -210 -39 -47 -3 -66 -2 -46 2 l35 8 -36
12 c-41 14 -58 55 -33 79 8 8 14 21 14 28 0 8 8 30 17 50 12 26 23 35 42 36
l26 0 -23 11 c-24 12 -24 19 9 92 16 36 27 46 80 70 38 17 71 25 85 22 12 -3
35 -1 51 6 15 7 33 13 38 13 60 9 88 22 130 61 26 25 50 42 54 39 3 -4 -2 -11
-12 -16 -20 -12 -23 -35 -4 -42 22 -8 57 12 57 33 0 16 7 20 33 20 46 0 135
44 148 74 9 18 19 24 39 24 17 -1 48 13 77 33 26 19 64 42 85 51 l36 17 -8
-27 c-4 -15 -26 -67 -48 -117 -21 -49 -45 -107 -51 -127 -15 -46 -24 -52 -51
-38 -12 6 -41 17 -66 25 -60 18 -81 1 -98 -80 -8 -33 -14 -64 -16 -70 -6 -23
1 -76 8 -71 5 3 19 -5 30 -17 35 -36 56 -53 74 -60 17 -6 15 -21 -11 -107 -6
-19 -11 -53 -11 -76 0 -48 21 -72 71 -80 51 -8 111 48 155 144 l33 73 38 -16
c21 -9 81 -33 133 -53 52 -20 116 -51 143 -69 81 -54 126 -55 177 -5 26 27 27
27 36 8 12 -27 125 -106 156 -108 13 -1 73 23 133 54 126 64 243 104 331 113
70 8 78 1 64 -58 -11 -52 -1 -199 15 -216 19 -19 34 -5 65 56 13 26 43 70 67
97 42 47 57 96 34 110 -12 8 -7 116 6 140 5 9 20 23 33 29 29 15 55 61 87 152
14 39 33 90 43 115 11 25 31 83 45 130 31 102 26 126 -35 166 -22 15 -40 30
-40 35 0 4 20 15 44 24 71 27 104 62 131 138 29 79 31 123 9 155 -16 24 -57
48 -95 56 -13 3 -36 8 -50 12 -15 3 -29 0 -36 -8z m119 -65 c47 -23 46 -77 -2
-173 -17 -34 -67 -69 -119 -85 l-24 -7 6 83 c3 46 15 112 27 146 21 61 22 62
53 56 18 -3 44 -12 59 -20z m-1446 -8 c28 -22 43 -25 111 -25 80 0 194 -19
230 -39 43 -22 73 -70 73 -116 0 -24 5 -45 11 -47 6 -2 12 -22 13 -44 0 -33
-8 -55 -47 -112 -26 -38 -47 -74 -47 -79 -2 -25 -156 -166 -247 -225 -85 -55
-206 -118 -228 -118 -13 0 -25 -7 -29 -15 -3 -9 -18 -15 -38 -15 l-33 -1 28
-24 c15 -13 27 -28 27 -32 0 -5 24 -22 53 -37 34 -19 53 -35 53 -47 0 -11 -2
-19 -4 -19 -7 0 -68 34 -92 51 -14 10 -37 21 -51 24 -26 6 -28 4 -38 -44 -23
-109 -90 -197 -144 -189 -20 3 -22 8 -19 53 2 28 7 55 11 60 19 25 31 102 23
145 -7 38 -9 42 -16 23 -10 -30 -23 -29 -48 2 -11 14 -25 25 -32 25 -20 0 -27
53 -16 111 6 29 10 53 10 56 0 8 59 -12 114 -39 32 -16 59 -28 60 -26 1 2 10
32 20 68 9 35 48 135 87 222 38 87 69 169 69 182 l0 25 -52 -36 c-29 -19 -75
-47 -103 -60 -27 -14 -65 -37 -83 -51 -39 -29 -53 -25 -89 27 -40 58 -10 93
152 177 61 31 115 59 120 63 6 4 36 14 68 21 64 15 84 40 72 88 -5 22 0 42 12
42 3 0 21 -11 39 -25z m810 -24 c56 -25 85 -64 78 -104 -12 -70 -76 -213 -140
-312 -17 -27 -35 -64 -38 -81 -6 -26 -11 -30 -31 -26 -28 5 -31 14 -11 31 7 6
17 35 20 63 4 28 11 59 16 68 6 11 4 24 -6 38 -18 27 -39 28 -54 5 -10 -16
-11 -16 -6 2 10 40 88 291 97 313 10 27 22 27 75 3z m-2331 -11 c3 -5 14 -10
23 -10 18 -1 82 -54 82 -68 0 -5 -28 -15 -62 -21 -112 -21 -113 -21 -116 -68
-2 -23 2 -51 7 -62 13 -24 -5 -33 -67 -35 -37 -1 -48 -7 -78 -41 -43 -49 -32
-25 44 97 141 225 150 236 167 208z m540 -16 c22 -15 34 -15 141 0 68 9 121
12 128 7 6 -4 29 -12 51 -16 l40 -8 -55 -9 c-70 -11 -201 -72 -229 -107 -31
-38 -101 -150 -101 -162 0 -5 -16 -26 -36 -45 -42 -42 -42 -70 0 -66 19 2 27
-1 24 -10 -3 -7 -18 -13 -34 -14 -40 0 -74 -21 -74 -44 0 -23 34 -27 72 -9 14
6 32 7 47 1 22 -8 20 -10 -23 -26 -53 -20 -87 -62 -80 -97 5 -21 4 -22 -6 -6
-16 25 -41 21 -84 -15 -35 -29 -97 -137 -101 -179 -1 -8 -5 -32 -9 -52 -20
-106 28 -199 112 -218 39 -8 130 -1 197 17 41 11 -72 -48 -130 -68 -110 -37
-175 -21 -237 58 -24 32 -26 41 -23 117 2 62 8 91 24 120 12 21 19 42 16 47
-3 5 4 25 15 45 11 19 20 43 20 51 0 18 -11 17 -117 -10 -68 -17 -106 -14
-142 13 -22 17 -22 18 -4 38 10 11 50 33 88 49 39 15 102 44 140 64 l70 36 97
169 c75 130 94 172 86 183 -6 7 -18 10 -27 7 -9 -4 -41 -9 -71 -11 -106 -8
-155 -13 -189 -20 -31 -6 -32 -5 -22 12 31 54 47 63 152 82 57 11 129 23 159
27 62 8 80 19 80 46 0 23 4 23 35 3z m610 -26 c15 -3 20 -11 18 -36 -1 -42
-11 -53 -75 -84 -58 -28 -238 -91 -244 -85 -2 2 41 32 95 66 116 72 125 82
117 116 -4 14 -3 25 1 24 22 -4 33 3 33 18 0 15 2 15 18 1 9 -9 26 -18 37 -20z
m-198 6 c-3 -3 -12 -4 -19 -1 -8 3 -5 6 6 6 11 1 17 -2 13 -5z m-102 -64 c-3
-5 -21 -10 -38 -10 -24 0 -28 3 -17 10 20 13 63 13 55 0z m-1400 -27 c3 -10
15 -93 25 -184 12 -101 27 -188 40 -220 26 -71 26 -116 -2 -146 -12 -13 -16
-23 -10 -23 7 0 12 -15 12 -35 0 -24 5 -35 15 -35 21 0 20 -4 -21 -73 -20 -34
-40 -69 -45 -77 -42 -75 -72 -123 -85 -138 -8 -9 -24 -28 -35 -42 l-20 -25 16
40 c14 34 42 99 134 310 l18 40 -69 120 c-75 131 -101 202 -124 340 -8 49 -19
101 -25 115 -16 36 10 50 97 50 59 0 73 -3 79 -17z m625 -20 c0 -4 -10 -17
-22 -30 -26 -28 -94 -34 -84 -7 3 9 6 20 6 25 0 6 4 8 8 5 5 -3 22 -1 38 4 37
11 54 12 54 3z m741 -67 c-18 -22 -257 -136 -249 -119 2 4 10 22 17 38 34 77
37 80 93 86 29 3 75 6 102 7 40 2 47 0 37 -12z m177 -64 c-1 -15 7 -42 16 -60
l17 -32 -31 0 c-17 0 -41 5 -52 11 -14 8 -23 8 -31 0 -6 -6 -25 -11 -42 -11
-18 0 -40 -9 -55 -23 -22 -21 -27 -22 -50 -10 -30 15 -69 17 -104 3 -14 -5
-26 -6 -26 -2 1 14 303 144 352 151 4 1 6 -11 6 -27z m1854 -53 c35 -23 48
-37 48 -55 0 -25 -97 -307 -132 -384 -12 -26 -35 -55 -56 -68 -19 -12 -36 -21
-37 -20 -2 2 1 27 6 56 7 37 7 58 0 66 -6 7 -8 16 -4 19 3 4 1 18 -7 31 -10
20 -10 31 0 58 6 18 16 47 20 63 19 70 61 212 71 238 15 35 31 34 91 -4z
m-3106 -47 c-17 -16 -18 -16 -5 5 7 12 15 20 18 17 3 -2 -3 -12 -13 -22z
m1274 -49 c16 -15 -69 -50 -95 -39 -19 7 -20 36 0 36 8 0 15 5 15 10 0 10 68
4 80 -7z m1130 -50 c-25 -74 -32 -92 -45 -103 -20 -17 1 69 25 102 11 15 20
33 20 39 0 7 3 10 6 6 3 -3 0 -23 -6 -44z m-1408 13 c-2 -10 5 -24 15 -31 17
-13 15 -15 -18 -29 -57 -24 -89 -30 -89 -16 0 9 -12 11 -41 6 -26 -4 -38 -3
-34 4 3 5 16 10 27 10 24 0 86 36 108 62 18 21 36 18 32 -6z m88 -16 c0 -5 -8
-10 -17 -10 -15 0 -16 2 -3 10 19 12 20 12 20 0z m1264 -167 c-9 -20 -13 -45
-10 -56 7 -27 -14 -67 -36 -67 -22 0 -24 27 -2 58 8 12 13 26 10 30 -6 11 31
72 43 72 6 0 3 -16 -5 -37z m10 -188 c-4 -8 -10 -15 -15 -15 -4 0 -6 7 -3 15
4 8 10 15 15 15 4 0 6 -7 3 -15z m-128 -86 c-7 -37 2 -63 18 -50 15 12 244 67
331 79 64 9 106 8 161 -3 25 -5 36 -45 20 -67 -6 -8 -35 -17 -66 -20 -78 -8
-167 -40 -306 -108 -67 -33 -124 -60 -128 -60 -9 0 -95 59 -114 77 -24 24 -10
66 28 84 20 10 35 25 36 35 1 11 2 32 3 47 0 18 5 26 12 21 6 -3 9 -19 5 -35z
m-221 -95 c41 -26 28 -64 -21 -64 -8 0 -11 6 -8 15 4 8 1 22 -6 30 -6 8 -9 19
-5 25 8 13 11 13 40 -6z m876 -116 c-18 -17 -39 -45 -47 -62 l-13 -31 -1 32
c0 55 15 81 52 86 18 2 35 4 38 5 3 1 -10 -12 -29 -30z"/>
<path d="M2487 1196 c-80 -17 -106 -40 -133 -117 -12 -35 -54 -126 -93 -203
-70 -136 -82 -171 -60 -178 6 -2 -5 -12 -25 -23 -25 -13 -36 -27 -36 -42 0
-12 -4 -25 -10 -28 -17 -11 -12 -55 7 -55 18 0 165 83 202 114 69 60 151 146
151 160 0 25 -27 19 -78 -16 -49 -34 -108 -68 -118 -68 -3 0 22 24 57 53 177
148 250 236 271 327 10 42 9 53 -3 64 -22 21 -68 25 -132 12z m93 -59 c0 -56
-106 -192 -205 -265 -27 -20 -60 -48 -72 -61 -43 -48 -35 -11 19 91 31 57 63
129 73 159 9 29 21 58 25 62 14 15 84 36 123 37 32 0 37 -3 37 -23z"/>
<path d="M4502 1393 c-38 -54 -70 -131 -113 -269 -5 -18 -18 -34 -29 -37 -12
-3 -20 -14 -20 -27 0 -12 -16 -51 -35 -87 -19 -36 -35 -73 -35 -84 0 -10 -9
-28 -20 -39 -11 -11 -20 -30 -20 -42 0 -13 -4 -29 -9 -37 -5 -8 -7 40 -4 116
5 117 4 133 -16 178 -12 27 -29 58 -39 68 -28 31 -109 67 -151 67 -49 0 -76
-33 -91 -111 -6 -29 -16 -62 -23 -73 -8 -12 -17 -36 -20 -54 -7 -36 -45 -137
-84 -222 -13 -30 -43 -75 -66 -99 -29 -30 -35 -40 -19 -31 29 14 37 8 23 -17
-16 -27 -101 -248 -101 -262 0 -6 -18 -48 -41 -92 -22 -45 -35 -78 -28 -73 9
5 11 -7 6 -53 -7 -63 2 -83 34 -83 10 0 28 12 41 28 19 23 48 36 125 58 12 3
123 216 138 264 4 14 16 43 26 65 10 22 29 74 44 115 14 41 39 90 54 109 l27
33 -3 -63 c-2 -35 -8 -95 -13 -134 -10 -67 -1 -237 15 -276 3 -10 2 -20 -4
-23 -17 -11 0 -37 32 -51 39 -16 91 -4 121 28 12 13 34 32 49 42 17 11 31 33
38 59 15 58 78 208 95 227 8 8 14 23 14 32 0 9 16 45 35 80 19 35 35 71 35 80
0 31 21 28 68 -11 26 -22 72 -48 101 -58 53 -17 98 -15 221 11 14 3 18 2 10
-1 -21 -10 -160 -150 -160 -162 0 -5 -15 -21 -33 -35 -37 -28 -101 -148 -112
-209 -6 -31 -4 -38 15 -48 12 -6 24 -9 27 -6 3 3 12 -1 20 -9 8 -8 23 -15 32
-15 10 0 24 -7 31 -15 7 -8 20 -15 29 -15 9 0 22 -5 27 -10 18 -18 103 6 160
45 62 43 172 156 211 218 30 48 64 133 55 141 -3 3 -16 6 -30 6 -23 0 -23 1
-10 22 29 44 28 105 -1 128 -4 3 -12 17 -18 33 -7 15 -19 27 -27 27 -7 0 -19
7 -26 15 -7 9 -20 15 -29 14 -9 -2 -34 3 -56 9 -22 7 -93 12 -158 12 -65 0
-117 3 -115 8 2 4 12 24 21 44 10 21 70 91 135 156 117 118 146 138 285 196
l37 16 -15 -24 c-9 -13 -23 -27 -31 -30 -8 -3 -14 -11 -14 -19 0 -7 -11 -24
-25 -37 -31 -29 -32 -60 -2 -88 32 -31 67 -27 117 11 23 17 54 39 67 48 57 38
152 131 155 152 9 55 -58 127 -160 170 -46 19 -128 6 -202 -32 -33 -17 -66
-31 -75 -31 -8 0 -15 -4 -15 -9 0 -10 -164 -131 -177 -131 -4 0 -14 -9 -21
-20 -7 -11 -18 -20 -24 -20 -7 0 -27 -15 -46 -32 l-34 -33 42 82 c40 80 41 82
25 112 -8 17 -19 31 -23 31 -4 0 -36 25 -70 55 -76 66 -118 74 -150 28z m110
-52 c24 -21 56 -50 72 -63 l29 -25 -43 -84 c-24 -46 -51 -95 -60 -109 -27 -39
-53 -82 -73 -120 -25 -46 -24 -45 -41 -30 -13 10 -20 6 -45 -20 -19 -21 -31
-28 -36 -20 -5 8 -10 8 -21 -1 -19 -16 -18 -5 6 33 21 34 26 68 11 68 -5 0
-11 10 -14 22 -5 19 7 58 49 156 8 18 14 39 14 48 0 20 57 144 77 166 22 25
26 24 75 -21z m659 5 c43 -18 119 -88 119 -109 0 -9 -28 -39 -62 -67 -173
-140 -183 -146 -203 -130 -13 11 -4 24 61 93 60 63 74 85 72 106 -4 34 -33 38
-90 13 -24 -11 -59 -25 -79 -31 -20 -6 -62 -27 -94 -46 -32 -19 -61 -35 -66
-35 -22 0 -5 21 36 46 44 25 56 49 35 70 -13 13 84 68 105 60 9 -3 15 1 15 9
0 8 10 17 23 19 12 3 31 7 42 9 37 8 53 7 86 -7z m-1196 -207 c79 -40 116
-136 101 -268 -3 -31 -11 -105 -16 -164 -6 -60 -15 -117 -20 -128 -7 -13 -7
-19 0 -19 5 0 10 -6 10 -14 0 -7 7 -20 16 -27 14 -11 18 -10 30 6 19 25 18 1
-1 -36 -9 -16 -13 -34 -10 -39 11 -18 35 -10 44 13 14 36 36 50 50 33 10 -11
9 -21 -2 -43 -8 -15 -26 -66 -41 -113 -21 -67 -33 -91 -59 -111 -40 -33 -79
-46 -76 -27 2 7 -3 40 -10 73 -9 39 -12 96 -8 165 8 157 26 348 38 408 6 30 9
55 7 58 -2 2 -21 -25 -42 -59 -20 -34 -42 -71 -49 -82 -7 -11 -27 -41 -45 -67
-18 -25 -38 -64 -46 -85 -11 -32 -17 -37 -37 -35 -33 5 -35 9 -16 30 10 10 17
27 17 38 0 10 9 44 19 74 26 78 -1 118 -51 73 -18 -16 -19 -16 -13 3 4 10 11
28 15 39 20 46 88 253 92 275 1 14 14 30 28 37 31 16 26 17 75 -8z m651 -213
c-20 -24 -36 -49 -36 -55 0 -5 -11 -27 -25 -47 -48 -70 -43 -74 104 -74 73 0
132 -4 136 -10 3 -5 19 -7 34 -4 23 5 35 -1 64 -30 20 -20 43 -36 51 -36 18 0
45 -79 36 -105 -4 -11 -27 -39 -51 -61 -24 -22 -63 -61 -86 -87 -24 -26 -43
-42 -43 -37 0 5 5 12 10 15 6 4 29 31 51 61 69 93 88 183 48 220 -17 16 -34
18 -97 16 -43 -2 -95 -7 -117 -12 -52 -12 -137 -12 -169 0 -14 5 -32 23 -41
41 -16 31 -16 32 21 87 34 52 131 162 142 162 2 0 -12 -20 -32 -44z m-875
-299 c-6 -6 -11 -19 -11 -29 0 -22 -35 -94 -50 -103 -6 -4 -8 5 -5 22 3 15 7
37 8 48 3 25 61 99 66 84 2 -6 -2 -16 -8 -22z m1148 7 c11 -10 -28 -104 -65
-154 -55 -75 -69 -84 -60 -39 4 19 8 45 10 59 2 14 15 47 29 73 14 26 23 55
20 64 -5 13 0 14 28 8 19 -4 36 -9 38 -11z m-153 -91 c-7 -16 -17 -53 -21 -83
-4 -30 -18 -83 -32 -117 -28 -71 -27 -98 4 -97 12 0 20 -3 17 -8 -3 -4 -11 -8
-18 -8 -18 0 -35 -21 -29 -36 3 -8 15 -14 27 -14 28 0 111 52 143 90 14 17 32
30 41 30 23 0 -30 -53 -102 -101 -70 -47 -103 -50 -134 -10 -13 17 -36 31 -55
35 -18 3 -38 15 -45 26 -14 22 -7 39 48 126 25 40 158 194 167 194 2 0 -3 -12
-11 -27z m-944 -55 c-7 -7 -12 -8 -12 -2 0 14 12 26 19 19 2 -3 -1 -11 -7 -17z
m-102 -12 c0 -2 -9 -25 -21 -51 -14 -32 -18 -50 -11 -57 17 -17 -16 -77 -39
-71 -28 8 -31 32 -8 69 11 19 18 34 14 34 -3 0 4 18 16 40 13 22 29 40 36 40
7 0 13 -2 13 -4z m1273 -80 c-19 -32 -64 -77 -74 -74 -5 2 7 22 29 46 38 41
61 56 45 28z m-1210 -11 c-3 -9 -8 -14 -10 -11 -3 3 -2 9 2 15 9 16 15 13 8
-4z m-75 -150 c-12 -27 -28 -33 -28 -10 0 11 23 33 37 35 2 0 -3 -11 -9 -25z
m-158 -116 l-21 -34 6 35 c4 19 9 44 12 55 6 20 6 20 15 -1 7 -16 4 -29 -12
-55z"/>
</g>
<style>
        path { fill: #000; }
        @media (prefers-color-scheme: dark) {
            path { fill: #FFF; }
        }
    </style>
</svg>
