<?xml version="1.0" standalone="no"?>
<!DOCTYPE svg PUBLIC "-//W3C//DTD SVG 20010904//EN"
 "http://www.w3.org/TR/2001/REC-SVG-20010904/DTD/svg10.dtd">
<svg version="1.0" xmlns="http://www.w3.org/2000/svg"
 width="877.000000pt" height="452.000000pt" viewBox="0 0 877.000000 452.000000"
 preserveAspectRatio="xMidYMid meet">

<g transform="translate(0.000000,452.000000) scale(0.100000,-0.100000)"
fill="#000000" stroke="none">
<path d="M2193 4510 c-13 -5 -23 -14 -23 -20 0 -6 -10 -15 -23 -21 -14 -6 -37
-37 -55 -74 -17 -35 -46 -84 -64 -108 -18 -25 -62 -88 -98 -142 -36 -53 -84
-124 -107 -156 -24 -33 -43 -65 -43 -73 0 -19 -40 -67 -51 -61 -5 4 -9 -9 -9
-28 0 -22 -8 -43 -25 -61 -14 -15 -25 -33 -25 -40 0 -8 -7 -19 -15 -26 -13
-11 -15 -3 -15 61 0 90 -18 125 -87 169 -94 59 -94 60 -205 -92 -116 -160
-109 -154 -102 -78 3 36 13 85 22 110 19 54 22 212 4 218 -7 2 -12 8 -12 13 0
6 -9 29 -19 52 -11 24 -23 55 -26 69 -4 15 -13 32 -21 39 -27 22 -41 2 -53
-78 -14 -89 -62 -293 -96 -403 -12 -41 -29 -100 -38 -130 -23 -80 -64 -258
-72 -310 -8 -54 3 -67 85 -103 66 -29 84 -25 167 31 48 33 62 48 73 84 l14 43
6 -30 c6 -28 7 -26 20 28 7 31 19 62 27 68 7 6 13 25 13 41 0 36 16 68 35 68
18 0 45 39 38 56 -3 8 0 14 7 14 7 0 10 -10 6 -27 -5 -23 -10 -278 -7 -375 1
-23 10 -32 51 -53 28 -14 55 -23 60 -20 5 3 32 7 59 9 59 3 80 19 107 79 11
23 26 49 35 58 9 9 33 57 54 108 21 51 46 98 55 104 31 22 42 54 31 92 -9 32
-7 36 17 47 26 13 136 178 209 312 20 38 44 71 53 73 9 3 24 21 34 41 9 20 22
45 29 54 14 17 83 28 209 33 l68 2 -22 -36 c-12 -20 -28 -46 -37 -59 -18 -30
-44 -76 -69 -127 -13 -25 -35 -48 -59 -61 -46 -26 -198 -90 -233 -98 -14 -3
-35 -15 -47 -25 -19 -16 -21 -23 -13 -53 21 -75 96 -111 188 -90 39 9 43 8 36
-6 -12 -31 -24 -104 -18 -114 4 -5 -4 -24 -16 -40 -19 -25 -21 -35 -11 -49 6
-10 11 -29 11 -42 0 -50 102 -171 153 -181 96 -20 132 -13 267 49 156 72 308
135 324 135 9 0 24 8 34 18 11 9 33 25 50 34 20 11 32 25 32 38 0 23 -23 26
-60 7 -133 -70 -524 -162 -544 -128 -5 7 4 11 26 12 l33 1 -35 12 c-27 10 -35
19 -37 39 -1 15 2 29 8 32 5 4 9 13 9 21 0 7 8 32 17 54 15 34 22 40 48 40
l30 1 -28 15 c-15 8 -26 18 -24 22 7 12 35 77 41 95 3 9 14 20 23 24 10 3 37
14 59 24 23 10 57 18 76 17 18 -1 42 4 53 9 11 6 38 13 60 17 62 11 75 16 75
32 0 8 6 14 13 14 8 0 24 11 37 25 13 14 28 25 34 25 6 0 0 -9 -14 -20 -19
-14 -22 -22 -13 -31 17 -17 63 -3 63 21 0 14 9 21 38 25 69 11 78 14 113 38
35 24 46 47 33 75 -4 9 -6 22 -5 29 1 7 -17 11 -51 11 -29 1 -64 1 -78 2 -43
2 -94 -12 -116 -31 -17 -16 -26 -17 -55 -9 -18 6 -56 8 -84 5 -49 -6 -47 -5
64 50 62 30 139 63 170 72 126 36 230 81 275 119 43 36 46 41 40 74 -13 72
-47 104 -139 128 -50 14 -239 7 -398 -13 -105 -14 -120 -14 -141 0 -29 19 -71
6 -81 -24 -7 -23 -10 -24 -137 -43 l-88 -14 0 33 c0 37 -41 82 -95 104 -16 7
-34 19 -38 26 -9 15 -13 15 -44 3z m789 -212 c-6 -6 -26 -12 -44 -14 l-33 -3
30 14 c39 18 64 20 47 3z m-33 -114 c-12 -15 -145 -85 -221 -117 l-36 -15 25
56 c14 32 29 62 34 68 6 7 44 12 96 13 47 0 88 3 91 6 13 13 23 3 11 -11z
m-79 -259 c0 -15 6 -25 15 -25 31 0 1 -27 -47 -43 -48 -15 -53 -15 -70 0 -17
15 -15 17 27 44 25 16 45 33 45 39 0 5 7 10 15 10 9 0 15 -9 15 -25z m90 -9
c0 -3 -4 -8 -10 -11 -5 -3 -10 -1 -10 4 0 6 5 11 10 11 6 0 10 -2 10 -4z
m-235 -56 c-27 -12 -43 -12 -25 0 8 5 22 9 30 9 10 0 8 -3 -5 -9z"/>
<path d="M4382 4509 c-32 -13 -244 -221 -299 -294 -46 -61 -103 -164 -103
-187 0 -6 -9 -22 -20 -34 -15 -15 -22 -37 -24 -80 -1 -33 -10 -72 -19 -89 -9
-16 -19 -37 -23 -47 -3 -9 -15 -18 -26 -21 -12 -3 -19 -13 -17 -24 1 -10 -5
-35 -14 -56 -9 -21 -21 -65 -27 -98 -6 -34 -16 -73 -22 -87 l-10 -27 -9 25
c-20 56 -100 74 -238 54 -53 -8 -114 -18 -136 -23 -22 -6 -41 -8 -44 -6 -2 3
12 40 32 83 20 44 50 124 68 178 17 54 38 106 45 115 8 9 11 19 8 22 -4 4 5
24 18 45 72 107 148 293 148 359 0 40 -5 51 -38 83 -44 41 -122 75 -155 66
-27 -7 -67 -74 -67 -113 0 -15 -9 -46 -19 -68 -10 -22 -21 -58 -25 -80 -4 -22
-14 -53 -21 -70 -7 -16 -16 -39 -19 -50 -9 -33 -51 -149 -58 -160 -10 -16 -64
-165 -83 -230 -10 -33 -29 -88 -42 -122 -12 -34 -23 -78 -23 -97 0 -29 -4 -36
-19 -36 -27 0 -51 -42 -51 -89 0 -34 6 -45 45 -79 47 -41 102 -72 128 -72 8 0
63 25 122 55 92 47 279 117 303 114 42 -7 86 4 106 26 l23 25 1 -43 c2 -85 54
-156 142 -196 53 -24 91 -26 129 -7 15 8 51 18 79 22 40 5 57 14 87 44 21 22
44 36 51 33 9 -3 14 3 14 18 1 27 29 113 48 144 9 16 13 17 21 6 5 -8 23 -15
40 -16 29 -2 31 1 31 31 0 18 20 75 45 127 25 52 45 98 45 103 0 4 15 23 33
42 17 19 27 33 22 31 -102 -38 -122 -49 -168 -93 -27 -28 -69 -76 -92 -107
-60 -82 -160 -175 -231 -215 -33 -19 -64 -34 -69 -34 -4 0 -4 19 -1 43 4 27 1
51 -8 69 -12 23 -11 36 10 118 23 87 50 150 65 150 8 0 31 64 35 95 4 38 35
107 72 163 21 32 50 82 65 113 16 32 59 89 103 135 l75 79 -6 -44 c-3 -24 -29
-89 -57 -144 -37 -71 -49 -104 -42 -114 12 -19 127 -63 166 -63 16 0 44 6 62
14 43 18 85 101 121 238 23 87 25 103 15 164 -13 78 -18 89 -58 128 -22 20
-53 34 -109 47 -87 21 -98 22 -131 8z m-1033 -624 c-11 -33 -27 -67 -36 -75
-14 -13 -15 -13 -7 0 5 8 9 27 10 43 1 23 44 101 51 94 1 -2 -7 -29 -18 -62z
m-29 -100 c0 -2 -7 -23 -16 -45 -9 -22 -14 -47 -10 -55 5 -15 -12 -65 -23 -65
-3 0 -13 5 -21 10 -13 8 -13 13 3 41 9 17 17 37 17 46 0 18 31 73 42 73 4 0 8
-2 8 -5z"/>
<path d="M5245 4500 c-29 -14 -44 -16 -58 -8 -21 11 -33 3 -39 -26 -2 -12 -12
-20 -26 -21 -13 -1 -27 -6 -30 -12 -13 -20 -49 -23 -106 -8 -53 14 -61 14 -82
0 -26 -17 -88 -142 -164 -330 -107 -267 -140 -405 -140 -580 0 -122 10 -159
55 -213 49 -57 124 -84 235 -85 113 -2 141 13 274 137 17 15 38 33 47 40 28
19 142 206 211 346 108 217 152 382 146 546 -3 74 -5 83 -12 55 -8 -31 -10
-32 -20 -14 -24 43 -115 111 -169 127 -30 9 -62 16 -70 16 -22 0 -31 18 -17
35 15 18 15 18 -35 -5z m49 -232 c18 -85 17 -104 -4 -195 -26 -115 -55 -194
-111 -306 -46 -92 -153 -250 -213 -315 -82 -90 -133 -90 -123 0 8 65 63 252
93 315 13 28 24 54 24 58 0 3 40 88 89 189 88 183 113 219 189 267 39 25 49
23 56 -13z"/>
<path d="M6513 4468 c-11 -13 -28 -35 -38 -50 -9 -16 -26 -28 -37 -28 -18 0
-19 -2 -7 -17 8 -10 9 -14 2 -10 -7 5 -21 -11 -38 -42 -15 -27 -37 -54 -48
-61 -12 -6 -48 -44 -80 -84 -65 -82 -235 -269 -248 -274 -18 -7 -8 79 25 205
18 71 32 142 31 156 -5 42 -40 81 -92 104 -93 41 -156 63 -179 63 -32 0 -61
-42 -75 -108 -6 -31 -28 -100 -49 -152 -43 -108 -140 -418 -140 -447 0 -10 -4
-23 -10 -29 -5 -5 -14 -39 -20 -74 -6 -36 -14 -87 -19 -114 -9 -58 -1 -106 19
-116 8 -4 30 -12 49 -18 34 -11 35 -11 113 34 19 11 58 78 58 100 0 7 13 45
29 86 16 40 41 106 56 146 l27 74 42 -41 c75 -74 190 -89 260 -36 18 14 37 25
42 25 4 0 18 12 31 28 17 20 22 23 23 10 0 -9 -4 -20 -10 -23 -5 -3 -10 -14
-10 -24 0 -9 -10 -37 -22 -62 -25 -51 -70 -218 -62 -231 3 -5 1 -15 -6 -23 -6
-7 -14 -36 -16 -64 -3 -28 -11 -72 -19 -98 -8 -26 -15 -59 -15 -73 0 -14 -7
-37 -14 -52 -10 -19 -11 -28 -4 -28 7 0 21 -8 32 -19 34 -30 72 -35 97 -10 16
16 23 18 35 8 28 -23 39 8 48 136 2 22 13 60 24 85 25 52 28 90 9 90 -10 0 -5
26 20 98 40 114 94 232 106 232 5 0 7 -6 4 -14 -8 -19 32 -77 63 -94 17 -9 46
-11 94 -7 62 5 68 4 61 -12 -10 -26 -18 -74 -17 -106 1 -15 -7 -36 -18 -47
-18 -18 -18 -22 -5 -55 9 -19 13 -35 10 -35 -15 0 39 -81 82 -122 81 -79 171
-83 318 -13 105 50 254 114 305 132 25 9 50 18 55 19 25 9 100 72 103 87 5 25
-20 21 -117 -17 -187 -75 -476 -138 -495 -107 -5 7 4 11 26 12 l33 1 -32 10
c-36 12 -46 46 -26 88 7 14 19 42 27 63 13 32 19 37 48 37 l33 1 -27 15 c-16
8 -28 16 -28 19 0 18 55 125 65 125 7 0 33 9 57 20 25 11 60 19 79 18 19 0 43
4 54 9 11 6 42 14 68 18 31 5 53 14 60 26 7 11 17 19 23 19 7 0 19 11 28 25 9
14 22 25 29 25 7 -1 5 -6 -5 -14 -26 -20 -23 -46 6 -46 26 0 51 23 42 39 -4 5
14 13 41 17 56 8 110 33 137 63 17 18 18 24 6 45 -7 13 -9 30 -5 37 6 9 -2 10
-34 5 -26 -4 -56 -2 -77 6 -26 9 -37 9 -46 0 -7 -7 -27 -12 -44 -12 -22 0 -38
-8 -51 -24 -15 -19 -21 -21 -31 -10 -9 10 -33 12 -85 9 l-72 -4 85 40 c113 54
156 71 275 109 105 34 171 66 218 104 27 22 28 26 21 72 -9 62 -53 108 -116
119 -70 13 -283 8 -415 -10 -113 -15 -123 -15 -147 0 -29 19 -54 10 -80 -30
-12 -18 -25 -25 -49 -25 -17 0 -83 -11 -144 -23 l-113 -23 0 24 c0 35 -45 87
-100 116 -61 32 -71 32 -97 4z m892 -170 c-3 -7 -19 -14 -37 -15 -46 -3 -18
17 34 26 4 0 5 -5 3 -11z m-51 -125 c-27 -23 -234 -127 -234 -118 0 2 13 32
29 68 l30 66 92 0 c50 0 94 3 97 6 3 3 8 5 11 4 3 0 -8 -12 -25 -26z m-444 1
c0 -1 -17 -32 -88 -153 -18 -31 -37 -68 -43 -82 -9 -25 -42 -45 -134 -83 -22
-10 -57 -26 -77 -37 -20 -10 -47 -19 -60 -19 -13 0 -35 -8 -48 -17 l-25 -17
16 24 c9 14 21 42 28 62 7 21 28 56 47 79 19 22 34 46 34 52 0 12 88 165 100
172 4 2 31 7 60 10 29 3 55 7 58 9 3 4 132 4 132 0z m385 -243 c-4 -12 0 -23
9 -28 23 -12 7 -28 -48 -46 -43 -15 -50 -15 -60 -2 -9 12 -18 13 -45 5 -19 -5
-37 -8 -39 -5 -2 2 14 9 37 15 22 6 59 26 83 45 49 39 72 44 63 16z m85 -21
c0 -5 -5 -10 -11 -10 -5 0 -7 5 -4 10 3 6 8 10 11 10 2 0 4 -4 4 -10z"/>
<path d="M4955 2955 c-19 -8 -38 -10 -51 -4 -24 9 -47 -9 -42 -31 2 -7 -6 -13
-18 -15 -11 -1 -34 -11 -51 -23 -17 -12 -33 -19 -36 -16 -3 3 -31 11 -62 19
-56 13 -57 12 -85 -14 -48 -46 -191 -385 -254 -604 -13 -45 -29 -133 -36 -195
-22 -194 3 -291 89 -347 83 -55 244 -69 323 -29 75 38 209 164 268 253 59 88
155 269 196 371 61 149 84 256 83 389 -1 64 -3 107 -6 96 -7 -26 -23 -44 -23
-24 0 8 -23 36 -50 61 -50 46 -91 66 -178 88 -36 9 -41 14 -32 26 15 17 5 17
-35 -1z m60 -269 c18 -192 -94 -471 -293 -729 -45 -59 -114 -117 -138 -117 -7
0 -18 9 -24 20 -8 15 -5 44 15 123 33 132 65 228 82 248 7 8 13 21 13 27 0 14
76 178 147 318 51 99 77 129 148 167 17 9 33 16 37 17 3 0 9 -33 13 -74z"/>
<path d="M4088 2929 c-81 -9 -164 -23 -185 -30 -21 -7 -42 -12 -46 -11 -5 1
-27 -3 -50 -10 -23 -6 -51 -13 -62 -14 -11 -1 -45 -10 -75 -19 -30 -9 -84 -23
-120 -31 -64 -14 -271 -78 -300 -93 -28 -15 -22 -59 20 -145 23 -47 47 -87 53
-89 20 -7 114 19 144 39 33 22 49 29 211 96 68 28 125 49 127 47 3 -4 -113
-292 -190 -469 -111 -257 -160 -409 -149 -459 12 -54 16 -61 35 -61 18 0 32
12 142 131 51 53 117 176 117 216 0 13 9 28 21 35 29 19 114 164 161 276 62
150 74 171 97 165 28 -7 50 35 27 52 -15 11 -13 18 16 75 32 60 34 62 103 85
39 13 87 24 108 25 21 0 47 4 57 10 13 7 19 6 24 -5 7 -20 35 -19 89 4 74 32
95 82 57 131 -11 14 -20 31 -20 38 0 14 -10 16 -62 13 -21 -2 -38 1 -38 6 0
15 -155 11 -312 -8z"/>
<path d="M6611 1404 c-12 -19 -21 -41 -21 -48 0 -7 -18 -37 -40 -66 -22 -30
-38 -60 -36 -67 3 -7 0 -16 -7 -20 -12 -8 -57 -68 -57 -77 0 -3 -21 -35 -46
-73 -26 -37 -51 -82 -56 -100 -5 -18 -18 -37 -28 -43 -11 -6 -20 -17 -20 -25
0 -7 -10 -26 -23 -42 -13 -15 -27 -35 -31 -43 -60 -121 -71 -135 -122 -151
-27 -9 -69 -19 -94 -23 l-44 -7 94 93 c57 56 115 125 145 173 47 75 50 84 49
145 0 83 -25 165 -61 202 -15 16 -52 41 -82 55 -48 24 -69 27 -170 30 -104 3
-118 5 -151 28 -20 14 -43 25 -51 25 -25 0 -57 -42 -61 -80 -3 -32 -6 -35 -53
-48 -27 -8 -58 -18 -67 -23 -10 -5 -24 -9 -32 -9 -8 0 -19 -6 -23 -14 -4 -8
-35 -27 -68 -43 -128 -62 -275 -174 -275 -211 0 -12 12 -46 26 -74 25 -50 26
-50 64 -45 22 3 51 14 66 26 14 11 65 32 112 47 48 15 100 33 115 41 26 13 27
13 17 -4 -6 -10 -39 -89 -74 -175 -56 -140 -67 -161 -100 -183 -37 -25 -81
-41 -102 -37 -7 1 -24 -2 -38 -8 -21 -8 -26 -16 -26 -45 0 -25 4 -35 15 -35 9
0 20 -11 25 -25 5 -14 16 -25 25 -25 8 0 15 -5 15 -10 0 -6 11 -15 23 -21 21
-10 23 -15 16 -47 -4 -21 -12 -53 -18 -72 -14 -44 -14 -96 -1 -120 6 -11 27
-24 47 -29 33 -9 42 -8 74 15 21 14 44 33 52 42 21 23 87 176 87 200 0 41 14
53 119 106 58 29 133 70 166 89 32 20 60 35 62 33 2 -1 5 -23 7 -48 4 -44 36
-121 55 -132 8 -5 -66 -154 -119 -241 -22 -35 -18 -43 30 -71 79 -46 110 -32
161 67 16 32 33 59 38 59 6 0 13 9 16 20 4 11 10 18 13 16 16 -10 41 24 71 96
18 41 41 84 51 93 11 10 20 23 20 29 0 7 17 11 39 11 23 0 47 8 58 18 30 27
36 21 29 -30 -4 -27 -9 -64 -11 -83 -3 -19 -7 -53 -10 -75 -13 -93 -15 -211
-4 -231 17 -33 137 -49 164 -23 6 6 10 38 11 72 1 39 10 88 26 132 14 39 33
115 43 171 l18 100 56 -4 c31 -2 58 -6 60 -8 2 -2 -3 -39 -12 -81 -26 -124
-28 -157 -12 -211 31 -103 181 -186 259 -142 17 10 53 20 81 24 38 5 57 14 85
41 20 19 41 35 48 35 7 0 12 7 12 15 0 8 6 29 14 47 8 18 17 44 20 58 3 14 12
34 20 45 15 20 15 20 31 -3 12 -17 20 -20 29 -13 7 6 15 8 18 6 3 -3 8 9 11
27 4 25 68 178 83 196 1 2 14 -4 29 -14 21 -14 39 -16 96 -11 64 5 70 4 64
-11 -10 -25 -18 -73 -17 -106 1 -18 -6 -37 -18 -48 -22 -21 -25 -34 -10 -43 6
-3 10 -19 10 -34 0 -34 45 -106 93 -148 77 -68 183 -65 328 7 43 22 107 51
142 64 35 13 83 34 106 46 24 12 53 22 64 23 30 3 137 79 137 98 0 18 -29 21
-62 5 -131 -61 -360 -124 -472 -131 -52 -3 -70 -1 -51 4 l30 8 -31 12 c-38 14
-49 50 -28 90 8 14 20 43 28 64 12 30 20 37 43 38 27 0 27 1 6 11 -13 6 -23
15 -23 19 0 21 53 126 63 126 7 0 34 10 61 22 29 14 58 20 71 17 13 -3 36 -1
52 6 15 6 33 12 38 13 53 7 87 22 118 50 31 29 37 31 37 15 0 -10 5 -22 10
-25 15 -9 60 22 60 40 0 10 11 15 33 15 65 1 165 66 151 99 -4 9 -7 24 -8 34
0 14 -10 17 -49 17 -26 0 -58 5 -69 11 -14 8 -23 8 -31 0 -6 -6 -26 -11 -44
-11 -23 0 -42 -8 -58 -24 -14 -14 -27 -21 -30 -16 -9 15 -88 22 -117 11 -18
-7 -28 -7 -28 -1 0 6 4 10 10 10 5 0 55 23 111 50 56 28 125 56 153 64 107 29
220 77 268 113 49 38 49 38 43 82 -7 46 -32 90 -51 91 -6 0 -17 7 -24 15 -7 8
-16 13 -20 10 -5 -3 -28 1 -52 9 -24 8 -68 12 -98 10 -30 -1 -91 -5 -135 -8
-86 -5 -229 -23 -256 -31 -9 -3 -22 1 -29 10 -7 8 -26 15 -42 15 -22 0 -33 -7
-46 -30 -12 -21 -25 -30 -44 -30 -32 0 -266 -46 -301 -59 -24 -9 -25 -8 -31
33 -4 24 -20 61 -37 84 -25 35 -42 45 -96 62 -36 11 -89 20 -119 20 l-54 0
-120 -116 c-65 -63 -137 -139 -159 -167 -48 -63 -114 -176 -114 -197 0 -8 -9
-25 -20 -37 -14 -16 -21 -39 -22 -75 -2 -29 -3 -58 -4 -64 0 -6 -12 -28 -26
-48 -13 -20 -21 -36 -17 -37 4 0 -2 -4 -12 -8 -11 -4 -42 -1 -72 8 l-52 16 -4
50 c-3 36 2 59 15 83 11 17 17 32 14 32 -3 0 7 39 24 87 31 93 34 107 19 83
-5 -8 -10 -10 -10 -4 0 6 8 22 18 35 30 39 74 174 69 209 -3 19 -21 46 -46 70
-23 22 -41 47 -41 56 0 13 -3 14 -14 5 -11 -9 -21 -7 -48 9 -49 30 -73 26 -97
-16z m1784 -194 c-3 -5 -23 -10 -43 -9 -30 0 -33 2 -17 9 28 12 67 12 60 0z
m-1020 -62 c-7 -36 -48 -126 -91 -200 -33 -58 -27 -68 59 -97 66 -23 121 -27
161 -12 31 12 68 75 96 164 26 79 3 70 230 91 14 1 35 0 47 -3 22 -6 22 -6 -9
-56 -45 -71 -87 -146 -98 -176 -6 -14 -23 -32 -38 -41 -42 -25 -208 -96 -242
-103 -37 -8 -86 -50 -70 -60 6 -4 -10 -23 -39 -46 -28 -22 -53 -49 -56 -59 -4
-11 -10 -20 -15 -20 -4 0 -25 -24 -46 -52 -66 -92 -162 -178 -258 -233 l-49
-28 5 47 c3 25 2 48 -2 51 -17 11 -16 59 2 133 11 42 22 87 25 99 3 12 16 35
30 49 14 15 26 32 28 38 1 6 5 18 8 26 3 8 8 26 10 40 10 47 38 113 66 154 16
23 46 74 65 112 35 67 157 214 178 214 6 0 7 -13 3 -32z m-1298 -64 c-12 -70
-68 -137 -253 -301 -26 -23 -50 -41 -52 -39 -2 2 26 63 62 136 36 72 68 147
72 165 5 29 13 37 48 49 48 18 72 23 105 25 22 1 23 -2 18 -35z m2273 6 c-47
-37 -245 -127 -237 -108 3 7 15 36 27 65 l22 52 57 4 c31 2 79 4 106 5 l50 2
-25 -20z m-1838 -231 c-6 -29 -17 -56 -25 -60 -8 -5 -18 -27 -22 -48 -7 -42
-27 -58 -45 -36 -8 10 -6 23 9 54 12 22 21 50 21 62 0 12 12 41 27 65 34 54
48 38 35 -37z m1770 -15 c-2 -10 4 -24 14 -31 16 -11 14 -14 -17 -27 -58 -24
-89 -30 -89 -16 0 9 -12 11 -40 7 -48 -6 -45 8 3 17 19 4 52 22 73 41 41 36
61 40 56 9z m88 -14 c0 -5 -8 -10 -17 -10 -15 0 -16 2 -3 10 19 12 20 12 20 0z
m15 -40 c3 -5 1 -10 -4 -10 -6 0 -11 5 -11 10 0 6 2 10 4 10 3 0 8 -4 11 -10z"/>
<path d="M3623 1418 c-26 -32 -65 -184 -66 -258 -1 -41 1 -81 4 -89 3 -10 -6
-17 -26 -20 -28 -6 -31 -13 -65 -116 -19 -61 -39 -117 -45 -125 -5 -8 -10 -24
-11 -35 -2 -31 -45 -199 -55 -211 -4 -5 -11 -48 -15 -93 l-7 -83 26 17 c14 9
28 24 30 33 3 9 5 4 6 -13 1 -27 -27 -116 -40 -129 -3 -3 -3 11 -1 31 3 19 0
38 -5 42 -6 3 -18 21 -27 39 -36 70 -136 80 -339 35 -38 -8 -71 -12 -74 -9 -3
3 13 48 36 100 23 52 53 132 67 178 15 46 30 87 35 93 5 5 9 15 9 22 0 8 20
49 45 91 61 105 125 263 125 310 0 58 -30 96 -104 131 -43 21 -73 30 -89 26
-28 -7 -62 -64 -70 -117 -3 -20 -12 -52 -20 -70 -8 -18 -20 -58 -27 -88 -7
-30 -16 -62 -20 -70 -21 -41 -60 -153 -60 -168 0 -10 -5 -23 -10 -28 -13 -13
-54 -123 -82 -219 -11 -38 -31 -98 -44 -132 -13 -34 -24 -78 -24 -97 0 -29 -4
-36 -20 -36 -23 0 -61 -55 -53 -76 9 -24 -13 -15 -25 10 -12 27 -147 140 -179
150 -13 4 -23 11 -23 15 0 4 -25 20 -55 36 -30 15 -55 31 -55 34 0 3 24 19 52
35 108 59 190 120 273 202 47 47 85 89 85 94 0 5 20 40 45 76 63 94 67 129 31
254 -20 70 -40 97 -101 131 -61 34 -104 41 -217 39 -80 -1 -91 1 -121 24 -61
47 -122 22 -119 -48 1 -31 -2 -36 -33 -46 -18 -6 -46 -13 -61 -16 -15 -3 -32
-8 -38 -12 -6 -3 -17 -7 -25 -9 -8 -1 -18 -9 -23 -18 -12 -20 -28 -10 -28 18
-1 42 -52 87 -107 94 -21 3 -43 9 -48 14 -6 4 -42 6 -80 3 -39 -3 -101 -6
-140 -8 -77 -4 -235 -25 -248 -33 -4 -2 -19 3 -33 12 -36 23 -76 16 -92 -17
-10 -22 -20 -28 -45 -28 -18 -1 -83 -11 -146 -24 l-113 -23 -46 44 c-44 44
-109 83 -135 83 -28 0 -106 -107 -229 -315 -20 -33 -59 -99 -87 -146 -28 -48
-51 -91 -51 -95 -1 -10 -36 -54 -43 -54 -15 0 -39 114 -56 263 -12 106 -25
177 -35 192 -19 28 -73 39 -151 30 -74 -10 -109 -37 -101 -79 21 -123 36 -200
51 -256 17 -70 93 -231 137 -294 l27 -38 -18 -37 c-10 -20 -22 -47 -26 -61 -8
-25 -66 -151 -84 -180 -24 -41 -56 -166 -52 -207 4 -50 103 46 185 181 13 20
21 25 29 17 6 -6 16 -11 22 -11 15 0 56 75 50 91 -3 8 -1 20 4 28 8 12 12 12
24 2 13 -10 19 -6 40 21 41 55 90 155 81 169 -25 41 -2 119 35 119 10 0 26 11
35 25 9 14 25 25 35 25 12 0 34 24 62 65 23 36 49 65 56 65 8 0 12 4 8 9 -8
14 23 61 78 120 l47 50 103 11 c56 6 113 12 127 14 14 1 34 0 46 -3 20 -6 17
-14 -50 -134 l-71 -127 -85 -41 c-130 -62 -143 -67 -175 -74 -16 -3 -40 -15
-53 -25 -21 -17 -22 -23 -12 -59 6 -23 23 -51 42 -67 31 -25 37 -26 105 -21
l71 5 -5 -36 c-3 -20 -9 -44 -13 -52 -5 -8 -6 -27 -3 -41 3 -16 -1 -30 -11
-38 -18 -15 -21 -47 -5 -56 5 -4 8 -14 6 -23 -6 -26 30 -90 78 -137 85 -86
171 -85 356 4 48 22 90 41 94 41 3 0 32 12 63 26 109 51 144 64 152 59 4 -2
20 7 34 20 15 14 31 25 37 25 14 0 49 38 49 55 0 20 -22 19 -73 -3 -102 -44
-129 -54 -251 -87 -76 -20 -162 -37 -210 -39 -47 -3 -66 -2 -46 2 l35 8 -36
12 c-41 14 -58 55 -33 79 8 8 14 21 14 28 0 8 8 30 17 50 12 26 23 35 42 36
l26 0 -23 11 c-24 12 -24 19 9 92 16 36 27 46 80 70 38 17 71 25 85 22 12 -3
35 -1 51 6 15 7 33 13 38 13 60 9 88 22 130 61 26 25 50 42 54 39 3 -4 -2 -11
-12 -16 -20 -12 -23 -35 -4 -42 22 -8 57 12 57 33 0 16 7 20 33 20 46 0 135
44 148 74 9 18 19 24 39 24 17 -1 48 13 77 33 26 19 64 42 85 51 l36 17 -8
-27 c-4 -15 -26 -67 -48 -117 -21 -49 -45 -107 -51 -127 -15 -46 -24 -52 -51
-38 -12 6 -41 17 -66 25 -60 18 -81 1 -98 -80 -8 -33 -14 -64 -16 -70 -6 -23
1 -76 8 -71 5 3 19 -5 30 -17 35 -36 56 -53 74 -60 17 -6 15 -21 -11 -107 -6
-19 -11 -53 -11 -76 0 -48 21 -72 71 -80 51 -8 111 48 155 144 l33 73 38 -16
c21 -9 81 -33 133 -53 52 -20 116 -51 143 -69 81 -54 126 -55 177 -5 26 27 27
27 36 8 12 -27 125 -106 156 -108 13 -1 73 23 133 54 126 64 243 104 331 113
70 8 78 1 64 -58 -11 -52 -1 -199 15 -216 19 -19 34 -5 65 56 13 26 43 70 67
97 42 47 57 96 34 110 -12 8 -7 116 6 140 5 9 20 23 33 29 29 15 55 61 87 152
14 39 33 90 43 115 11 25 31 83 45 130 31 102 26 126 -35 166 -22 15 -40 30
-40 35 0 4 20 15 44 24 71 27 104 62 131 138 29 79 31 123 9 155 -16 24 -57
48 -95 56 -13 3 -36 8 -50 12 -15 3 -29 0 -36 -8z m-1998 -208 c-3 -5 -21 -10
-38 -10 -24 0 -28 3 -17 10 20 13 63 13 55 0z m955 -73 c0 -56 -106 -192 -205
-265 -27 -20 -60 -48 -72 -61 -43 -48 -35 -11 19 91 31 57 63 129 73 159 9 29
21 58 25 62 14 15 84 36 123 37 32 0 37 -3 37 -23z m-989 -41 c-18 -22 -257
-136 -249 -119 2 4 10 22 17 38 34 77 37 80 93 86 29 3 75 6 102 7 40 2 47 0
37 -12z m177 -64 c-1 -15 7 -42 16 -60 l17 -32 -31 0 c-17 0 -41 5 -52 11 -14
8 -23 8 -31 0 -6 -6 -25 -11 -42 -11 -18 0 -40 -9 -55 -23 -22 -21 -27 -22
-50 -10 -30 15 -69 17 -104 3 -14 -5 -26 -6 -26 -2 1 14 303 144 352 151 4 1
6 -11 6 -27z m1152 -199 c-25 -74 -32 -92 -45 -103 -20 -17 1 69 25 102 11 15
20 33 20 39 0 7 3 10 6 6 3 -3 0 -23 -6 -44z m-1408 13 c-2 -10 5 -24 15 -31
17 -13 15 -15 -18 -29 -57 -24 -89 -30 -89 -16 0 9 -12 11 -41 6 -26 -4 -38
-3 -34 4 3 5 16 10 27 10 24 0 86 36 108 62 18 21 36 18 32 -6z m88 -16 c0 -5
-8 -10 -17 -10 -15 0 -16 2 -3 10 19 12 20 12 20 0z m1264 -167 c-9 -20 -13
-45 -10 -56 7 -27 -14 -67 -36 -67 -22 0 -24 27 -2 58 8 12 13 26 10 30 -6 11
31 72 43 72 6 0 3 -16 -5 -37z"/>
<path d="M4502 1393 c-38 -54 -70 -131 -113 -269 -5 -18 -18 -34 -29 -37 -12
-3 -20 -14 -20 -27 0 -12 -16 -51 -35 -87 -19 -36 -35 -73 -35 -84 0 -10 -9
-28 -20 -39 -11 -11 -20 -30 -20 -42 0 -13 -4 -29 -9 -37 -5 -8 -7 40 -4 116
5 117 4 133 -16 178 -12 27 -29 58 -39 68 -28 31 -109 67 -151 67 -49 0 -76
-33 -91 -111 -6 -29 -16 -62 -23 -73 -8 -12 -17 -36 -20 -54 -7 -36 -45 -137
-84 -222 -13 -30 -43 -75 -66 -99 -29 -30 -35 -40 -19 -31 29 14 37 8 23 -17
-16 -27 -101 -248 -101 -262 0 -6 -18 -48 -41 -92 -22 -45 -35 -78 -28 -73 9
5 11 -7 6 -53 -7 -63 2 -83 34 -83 10 0 28 12 41 28 19 23 48 36 125 58 12 3
123 216 138 264 4 14 16 43 26 65 10 22 29 74 44 115 14 41 39 90 54 109 l27
33 -3 -63 c-2 -35 -8 -95 -13 -134 -10 -67 -1 -237 15 -276 3 -10 2 -20 -4
-23 -17 -11 0 -37 32 -51 39 -16 91 -4 121 28 12 13 34 32 49 42 17 11 31 33
38 59 15 58 78 208 95 227 8 8 14 23 14 32 0 9 16 45 35 80 19 35 35 71 35 80
0 31 21 28 68 -11 26 -22 72 -48 101 -58 53 -17 98 -15 221 11 14 3 18 2 10
-1 -21 -10 -160 -150 -160 -162 0 -5 -15 -21 -33 -35 -37 -28 -101 -148 -112
-209 -6 -31 -4 -38 15 -48 12 -6 24 -9 27 -6 3 3 12 -1 20 -9 8 -8 23 -15 32
-15 10 0 24 -7 31 -15 7 -8 20 -15 29 -15 9 0 22 -5 27 -10 18 -18 103 6 160
45 62 43 172 156 211 218 30 48 64 133 55 141 -3 3 -16 6 -30 6 -23 0 -23 1
-10 22 29 44 28 105 -1 128 -4 3 -12 17 -18 33 -7 15 -19 27 -27 27 -7 0 -19
7 -26 15 -7 9 -20 15 -29 14 -9 -2 -34 3 -56 9 -22 7 -93 12 -158 12 -65 0
-117 3 -115 8 2 4 12 24 21 44 10 21 70 91 135 156 117 118 146 138 285 196
l37 16 -15 -24 c-9 -13 -23 -27 -31 -30 -8 -3 -14 -11 -14 -19 0 -7 -11 -24
-25 -37 -31 -29 -32 -60 -2 -88 32 -31 67 -27 117 11 23 17 54 39 67 48 57 38
152 131 155 152 9 55 -58 127 -160 170 -46 19 -128 6 -202 -32 -33 -17 -66
-31 -75 -31 -8 0 -15 -4 -15 -9 0 -10 -164 -131 -177 -131 -4 0 -14 -9 -21
-20 -7 -11 -18 -20 -24 -20 -7 0 -27 -15 -46 -32 l-34 -33 42 82 c40 80 41 82
25 112 -8 17 -19 31 -23 31 -4 0 -36 25 -70 55 -76 66 -118 74 -150 28z m-651
-766 c-6 -6 -11 -19 -11 -29 0 -22 -35 -94 -50 -103 -6 -4 -8 5 -5 22 3 15 7
37 8 48 3 25 61 99 66 84 2 -6 -2 -16 -8 -22z m1148 7 c11 -10 -28 -104 -65
-154 -55 -75 -69 -84 -60 -39 4 19 8 45 10 59 2 14 15 47 29 73 14 26 23 55
20 64 -5 13 0 14 28 8 19 -4 36 -9 38 -11z m-1199 -158 c0 -2 -9 -25 -21 -51
-14 -32 -18 -50 -11 -57 17 -17 -16 -77 -39 -71 -28 8 -31 32 -8 69 11 19 18
34 14 34 -3 0 4 18 16 40 13 22 29 40 36 40 7 0 13 -2 13 -4z"/>
</g>
<style>
        path { fill: #000; }
        @media (prefers-color-scheme: dark) {
            path { fill: #FFF; }
        }
    </style>
</svg>
